G04 #@! TF.GenerationSoftware,KiCad,Pcbnew,8.0.2*
G04 #@! TF.CreationDate,2024-05-30T00:05:45-04:00*
G04 #@! TF.ProjectId,gc_sp2,67635f73-7032-42e6-9b69-6361645f7063,rev?*
G04 #@! TF.SameCoordinates,Original*
G04 #@! TF.FileFunction,Copper,L1,Top*
G04 #@! TF.FilePolarity,Positive*
%FSLAX46Y46*%
G04 Gerber Fmt 4.6, Leading zero omitted, Abs format (unit mm)*
G04 Created by KiCad (PCBNEW 8.0.2) date 2024-05-30 00:05:45*
%MOMM*%
%LPD*%
G01*
G04 APERTURE LIST*
G04 Aperture macros list*
%AMRoundRect*
0 Rectangle with rounded corners*
0 $1 Rounding radius*
0 $2 $3 $4 $5 $6 $7 $8 $9 X,Y pos of 4 corners*
0 Add a 4 corners polygon primitive as box body*
4,1,4,$2,$3,$4,$5,$6,$7,$8,$9,$2,$3,0*
0 Add four circle primitives for the rounded corners*
1,1,$1+$1,$2,$3*
1,1,$1+$1,$4,$5*
1,1,$1+$1,$6,$7*
1,1,$1+$1,$8,$9*
0 Add four rect primitives between the rounded corners*
20,1,$1+$1,$2,$3,$4,$5,0*
20,1,$1+$1,$4,$5,$6,$7,0*
20,1,$1+$1,$6,$7,$8,$9,0*
20,1,$1+$1,$8,$9,$2,$3,0*%
G04 Aperture macros list end*
G04 #@! TA.AperFunction,SMDPad,CuDef*
%ADD10R,1.500000X7.000000*%
G04 #@! TD*
G04 #@! TA.AperFunction,SMDPad,CuDef*
%ADD11R,1.500000X1.250000*%
G04 #@! TD*
G04 #@! TA.AperFunction,SMDPad,CuDef*
%ADD12R,2.921000X0.558800*%
G04 #@! TD*
G04 #@! TA.AperFunction,SMDPad,CuDef*
%ADD13R,1.041400X1.092200*%
G04 #@! TD*
G04 #@! TA.AperFunction,SMDPad,CuDef*
%ADD14R,1.041400X1.193800*%
G04 #@! TD*
G04 #@! TA.AperFunction,SMDPad,CuDef*
%ADD15R,1.041400X2.387600*%
G04 #@! TD*
G04 #@! TA.AperFunction,SMDPad,CuDef*
%ADD16R,0.508000X0.990600*%
G04 #@! TD*
G04 #@! TA.AperFunction,SMDPad,CuDef*
%ADD17R,0.711200X0.787400*%
G04 #@! TD*
G04 #@! TA.AperFunction,SMDPad,CuDef*
%ADD18RoundRect,0.150000X0.150000X-0.650000X0.150000X0.650000X-0.150000X0.650000X-0.150000X-0.650000X0*%
G04 #@! TD*
G04 #@! TA.AperFunction,ViaPad*
%ADD19C,0.800000*%
G04 #@! TD*
G04 #@! TA.AperFunction,Conductor*
%ADD20C,0.400000*%
G04 #@! TD*
G04 #@! TA.AperFunction,Conductor*
%ADD21C,0.250000*%
G04 #@! TD*
G04 APERTURE END LIST*
D10*
X75500000Y-115900000D03*
X77500000Y-115900000D03*
X79500000Y-115900000D03*
X81500000Y-115900000D03*
D11*
X78000000Y-107350000D03*
X75500000Y-107350000D03*
D12*
X94645000Y-117467300D03*
X90455000Y-117467300D03*
D13*
X87174999Y-114182300D03*
D14*
X87174999Y-116792300D03*
X97824965Y-116222299D03*
D15*
X97825001Y-113037299D03*
D16*
X88949999Y-110232301D03*
X90050000Y-110232301D03*
X91150000Y-110232301D03*
X92250000Y-110232301D03*
X93350001Y-110232301D03*
X94450001Y-110232301D03*
X95550002Y-110232301D03*
X96649999Y-110232301D03*
D17*
X87190000Y-112912300D03*
D18*
X80550000Y-109650000D03*
X81500000Y-109650000D03*
X82450000Y-109650000D03*
X82450000Y-107350000D03*
X80550000Y-107350000D03*
D19*
X92250000Y-109000000D03*
X79500000Y-107350000D03*
X84500000Y-112000000D03*
X64000000Y-119000000D03*
X71500000Y-119000000D03*
X64000000Y-107350000D03*
X71500000Y-107350000D03*
X64000000Y-101500000D03*
X71500000Y-101500000D03*
X82750000Y-101500000D03*
X71500000Y-113150000D03*
X98500000Y-106500000D03*
X92500000Y-111800000D03*
X93350000Y-109000000D03*
X90050000Y-113000000D03*
D20*
X92250000Y-109000000D02*
X92250000Y-110232301D01*
X75500000Y-115900000D02*
X75500000Y-112000000D01*
X79500000Y-107350000D02*
X78000000Y-107350000D01*
X76500000Y-111000000D02*
X78500000Y-111000000D01*
X79500000Y-110000000D02*
X79500000Y-107350000D01*
X80550000Y-107350000D02*
X79500000Y-107350000D01*
X75500000Y-112000000D02*
X76500000Y-111000000D01*
X78500000Y-111000000D02*
X79500000Y-110000000D01*
D21*
X93350000Y-109000000D02*
X93350000Y-110232300D01*
X93350000Y-110232300D02*
X93350001Y-110232301D01*
X95550002Y-111949998D02*
X95550002Y-110232301D01*
X94500000Y-113000000D02*
X95550002Y-111949998D01*
X94500000Y-113000000D02*
X90050000Y-113000000D01*
X79500000Y-112000000D02*
X80550000Y-110950000D01*
X79500000Y-115900000D02*
X79500000Y-112000000D01*
X80550000Y-110950000D02*
X80550000Y-109650000D01*
X81500000Y-109150000D02*
X81500000Y-115900000D01*
X91150000Y-108650000D02*
X89850000Y-107350000D01*
X91150000Y-110232301D02*
X91150000Y-108650000D01*
X82450000Y-107350000D02*
X89850000Y-107350000D01*
G04 #@! TA.AperFunction,Conductor*
G36*
X83141621Y-101070502D02*
G01*
X83188114Y-101124158D01*
X83199500Y-101176500D01*
X83199500Y-105572473D01*
X83199499Y-105572473D01*
X83237016Y-105712485D01*
X83309488Y-105838011D01*
X83309496Y-105838021D01*
X83411978Y-105940503D01*
X83411983Y-105940507D01*
X83411985Y-105940509D01*
X83537515Y-106012984D01*
X83677525Y-106050500D01*
X98823500Y-106050500D01*
X98891621Y-106070502D01*
X98938114Y-106124158D01*
X98949500Y-106176500D01*
X98949500Y-111423823D01*
X98929498Y-111491944D01*
X98875842Y-111538437D01*
X98805568Y-111548541D01*
X98740988Y-111519047D01*
X98722632Y-111499333D01*
X98708603Y-111480593D01*
X98591666Y-111393054D01*
X98454794Y-111342004D01*
X98394298Y-111335499D01*
X98079001Y-111335499D01*
X98079001Y-114739099D01*
X98394286Y-114739099D01*
X98394298Y-114739098D01*
X98454794Y-114732593D01*
X98591665Y-114681543D01*
X98591666Y-114681543D01*
X98708604Y-114594003D01*
X98722631Y-114575266D01*
X98779466Y-114532719D01*
X98850282Y-114527653D01*
X98912595Y-114561678D01*
X98946620Y-114623989D01*
X98949500Y-114650774D01*
X98949500Y-115205771D01*
X98929498Y-115273892D01*
X98875842Y-115320385D01*
X98805568Y-115330489D01*
X98740988Y-115300995D01*
X98722633Y-115281281D01*
X98708569Y-115262495D01*
X98591630Y-115174954D01*
X98454758Y-115123904D01*
X98394262Y-115117399D01*
X98078965Y-115117399D01*
X98078965Y-117327199D01*
X98394250Y-117327199D01*
X98394262Y-117327198D01*
X98454758Y-117320693D01*
X98591629Y-117269643D01*
X98591630Y-117269643D01*
X98708568Y-117182103D01*
X98722631Y-117163318D01*
X98779466Y-117120771D01*
X98850282Y-117115705D01*
X98912595Y-117149730D01*
X98946620Y-117212042D01*
X98949500Y-117238826D01*
X98949500Y-119323500D01*
X98929498Y-119391621D01*
X98875842Y-119438114D01*
X98823500Y-119449500D01*
X86176500Y-119449500D01*
X86108379Y-119429498D01*
X86061886Y-119375842D01*
X86050500Y-119323500D01*
X86050500Y-117808875D01*
X86070502Y-117740754D01*
X86124158Y-117694261D01*
X86194432Y-117684157D01*
X86259012Y-117713651D01*
X86277369Y-117733367D01*
X86291395Y-117752104D01*
X86408333Y-117839644D01*
X86545205Y-117890694D01*
X86605701Y-117897199D01*
X86605714Y-117897200D01*
X86920999Y-117897200D01*
X87428999Y-117897200D01*
X87744284Y-117897200D01*
X87744296Y-117897199D01*
X87804792Y-117890694D01*
X87941663Y-117839644D01*
X87941664Y-117839644D01*
X88058603Y-117752104D01*
X88146143Y-117635165D01*
X88146143Y-117635164D01*
X88197193Y-117498293D01*
X88203698Y-117437797D01*
X88203699Y-117437785D01*
X88203699Y-117139250D01*
X88486000Y-117139250D01*
X88486000Y-117795349D01*
X88492509Y-117855896D01*
X88492511Y-117855904D01*
X88543610Y-117992902D01*
X88543612Y-117992907D01*
X88631238Y-118109961D01*
X88748292Y-118197587D01*
X88748294Y-118197588D01*
X88748296Y-118197589D01*
X88807375Y-118219624D01*
X88885295Y-118248688D01*
X88885303Y-118248690D01*
X88945850Y-118255199D01*
X88945855Y-118255199D01*
X88945862Y-118255200D01*
X88945868Y-118255200D01*
X91964132Y-118255200D01*
X91964138Y-118255200D01*
X91964145Y-118255199D01*
X91964149Y-118255199D01*
X92024696Y-118248690D01*
X92024699Y-118248689D01*
X92024701Y-118248689D01*
X92161704Y-118197589D01*
X92278761Y-118109961D01*
X92366389Y-117992904D01*
X92417489Y-117855901D01*
X92424000Y-117795338D01*
X92424000Y-117795330D01*
X92424180Y-117791972D01*
X92447798Y-117725019D01*
X92503864Y-117681463D01*
X92574577Y-117675132D01*
X92637488Y-117708038D01*
X92672622Y-117769732D01*
X92675820Y-117791972D01*
X92676000Y-117795349D01*
X92682509Y-117855896D01*
X92682511Y-117855904D01*
X92733610Y-117992902D01*
X92733612Y-117992907D01*
X92821238Y-118109961D01*
X92938292Y-118197587D01*
X92938294Y-118197588D01*
X92938296Y-118197589D01*
X92997375Y-118219624D01*
X93075295Y-118248688D01*
X93075303Y-118248690D01*
X93135850Y-118255199D01*
X93135855Y-118255199D01*
X93135862Y-118255200D01*
X93135868Y-118255200D01*
X96154132Y-118255200D01*
X96154138Y-118255200D01*
X96154145Y-118255199D01*
X96154149Y-118255199D01*
X96214696Y-118248690D01*
X96214699Y-118248689D01*
X96214701Y-118248689D01*
X96351704Y-118197589D01*
X96468761Y-118109961D01*
X96556389Y-117992904D01*
X96607489Y-117855901D01*
X96614000Y-117795338D01*
X96614000Y-117139262D01*
X96612916Y-117129178D01*
X96625521Y-117059310D01*
X96665395Y-117016481D01*
X96600200Y-116994779D01*
X96596761Y-116990511D01*
X96744860Y-116990511D01*
X96810054Y-117012210D01*
X96847317Y-117058449D01*
X96849503Y-117057256D01*
X96853820Y-117065164D01*
X96941360Y-117182103D01*
X97058299Y-117269643D01*
X97195171Y-117320693D01*
X97255667Y-117327198D01*
X97255680Y-117327199D01*
X97570965Y-117327199D01*
X97570965Y-116476299D01*
X96796265Y-116476299D01*
X96796265Y-116867793D01*
X96797343Y-116877819D01*
X96784734Y-116947687D01*
X96744860Y-116990511D01*
X96596761Y-116990511D01*
X96562850Y-116948429D01*
X96560705Y-116949601D01*
X96556387Y-116941692D01*
X96468761Y-116824638D01*
X96351707Y-116737012D01*
X96351702Y-116737010D01*
X96214704Y-116685911D01*
X96214696Y-116685909D01*
X96154149Y-116679400D01*
X96154138Y-116679400D01*
X93135862Y-116679400D01*
X93135850Y-116679400D01*
X93075303Y-116685909D01*
X93075295Y-116685911D01*
X92938297Y-116737010D01*
X92938292Y-116737012D01*
X92821238Y-116824638D01*
X92733612Y-116941692D01*
X92733610Y-116941697D01*
X92682511Y-117078695D01*
X92682509Y-117078703D01*
X92676000Y-117139250D01*
X92675820Y-117142628D01*
X92652202Y-117209581D01*
X92596136Y-117253137D01*
X92525423Y-117259468D01*
X92462512Y-117226562D01*
X92427378Y-117164868D01*
X92424180Y-117142628D01*
X92423999Y-117139250D01*
X92417490Y-117078703D01*
X92417488Y-117078695D01*
X92368900Y-116948429D01*
X92366389Y-116941696D01*
X92366388Y-116941694D01*
X92366387Y-116941692D01*
X92278761Y-116824638D01*
X92161707Y-116737012D01*
X92161702Y-116737010D01*
X92024704Y-116685911D01*
X92024696Y-116685909D01*
X91964149Y-116679400D01*
X91964138Y-116679400D01*
X88945862Y-116679400D01*
X88945850Y-116679400D01*
X88885303Y-116685909D01*
X88885295Y-116685911D01*
X88748297Y-116737010D01*
X88748292Y-116737012D01*
X88631238Y-116824638D01*
X88543612Y-116941692D01*
X88543610Y-116941697D01*
X88492511Y-117078695D01*
X88492509Y-117078703D01*
X88486000Y-117139250D01*
X88203699Y-117139250D01*
X88203699Y-117046300D01*
X87428999Y-117046300D01*
X87428999Y-117897200D01*
X86920999Y-117897200D01*
X86920999Y-116538300D01*
X87428999Y-116538300D01*
X88203699Y-116538300D01*
X88203699Y-116146814D01*
X88203698Y-116146802D01*
X88197193Y-116086306D01*
X88146143Y-115949435D01*
X88146143Y-115949434D01*
X88058603Y-115832495D01*
X87941664Y-115744955D01*
X87804792Y-115693905D01*
X87744296Y-115687400D01*
X87428999Y-115687400D01*
X87428999Y-116538300D01*
X86920999Y-116538300D01*
X86920999Y-115687400D01*
X86605701Y-115687400D01*
X86545205Y-115693905D01*
X86408334Y-115744955D01*
X86408333Y-115744955D01*
X86291396Y-115832494D01*
X86277368Y-115851234D01*
X86220532Y-115893780D01*
X86149716Y-115898844D01*
X86087404Y-115864819D01*
X86053379Y-115802506D01*
X86050500Y-115775724D01*
X86050500Y-115576801D01*
X96796265Y-115576801D01*
X96796265Y-115968299D01*
X97570965Y-115968299D01*
X97570965Y-115117399D01*
X97255667Y-115117399D01*
X97195171Y-115123904D01*
X97058300Y-115174954D01*
X97058299Y-115174954D01*
X96941360Y-115262494D01*
X96853820Y-115379433D01*
X96853820Y-115379434D01*
X96802770Y-115516305D01*
X96796265Y-115576801D01*
X86050500Y-115576801D01*
X86050500Y-115148075D01*
X86070502Y-115079954D01*
X86124158Y-115033461D01*
X86194432Y-115023357D01*
X86259012Y-115052851D01*
X86277369Y-115072567D01*
X86291395Y-115091304D01*
X86408333Y-115178844D01*
X86545205Y-115229894D01*
X86605701Y-115236399D01*
X86605714Y-115236400D01*
X86920999Y-115236400D01*
X87428999Y-115236400D01*
X87744284Y-115236400D01*
X87744296Y-115236399D01*
X87804792Y-115229894D01*
X87941663Y-115178844D01*
X87941664Y-115178844D01*
X88058603Y-115091304D01*
X88146143Y-114974365D01*
X88146143Y-114974364D01*
X88197193Y-114837493D01*
X88203698Y-114776997D01*
X88203699Y-114776985D01*
X88203699Y-114436300D01*
X87428999Y-114436300D01*
X87428999Y-115236400D01*
X86920999Y-115236400D01*
X86920999Y-114279696D01*
X96796301Y-114279696D01*
X96802806Y-114340192D01*
X96853856Y-114477063D01*
X96853856Y-114477064D01*
X96941396Y-114594003D01*
X97058335Y-114681543D01*
X97195207Y-114732593D01*
X97255703Y-114739098D01*
X97255716Y-114739099D01*
X97571001Y-114739099D01*
X97571001Y-113291299D01*
X96796301Y-113291299D01*
X96796301Y-114279696D01*
X86920999Y-114279696D01*
X86920999Y-114054300D01*
X86941001Y-113986179D01*
X86994657Y-113939686D01*
X87046999Y-113928300D01*
X88203699Y-113928300D01*
X88203699Y-113587614D01*
X88203698Y-113587602D01*
X88197193Y-113527106D01*
X88146143Y-113390235D01*
X88146143Y-113390234D01*
X88079232Y-113300852D01*
X88054421Y-113234332D01*
X88054100Y-113225343D01*
X88054100Y-113000000D01*
X89136496Y-113000000D01*
X89156457Y-113189927D01*
X89181194Y-113266057D01*
X89215473Y-113371556D01*
X89215476Y-113371561D01*
X89310958Y-113536941D01*
X89310965Y-113536951D01*
X89438744Y-113678864D01*
X89438747Y-113678866D01*
X89593248Y-113791118D01*
X89767712Y-113868794D01*
X89954513Y-113908500D01*
X90145487Y-113908500D01*
X90332288Y-113868794D01*
X90506752Y-113791118D01*
X90661253Y-113678866D01*
X90664563Y-113675190D01*
X90725009Y-113637950D01*
X90758200Y-113633500D01*
X94562393Y-113633500D01*
X94562394Y-113633500D01*
X94684785Y-113609155D01*
X94800075Y-113561400D01*
X94903833Y-113492071D01*
X96042073Y-112353831D01*
X96111402Y-112250073D01*
X96159157Y-112134783D01*
X96183502Y-112012392D01*
X96183502Y-111887604D01*
X96183502Y-111358757D01*
X96203504Y-111290636D01*
X96257160Y-111244143D01*
X96322971Y-111233479D01*
X96347351Y-111236100D01*
X96347352Y-111236100D01*
X96347361Y-111236101D01*
X96347367Y-111236101D01*
X96889433Y-111236101D01*
X96957554Y-111256103D01*
X97004047Y-111309759D01*
X97014151Y-111380033D01*
X96984657Y-111444613D01*
X96964942Y-111462969D01*
X96941396Y-111480594D01*
X96853856Y-111597533D01*
X96853856Y-111597534D01*
X96802806Y-111734405D01*
X96796301Y-111794901D01*
X96796301Y-112783299D01*
X97571001Y-112783299D01*
X97571001Y-111335499D01*
X97319033Y-111335499D01*
X97250912Y-111315497D01*
X97204419Y-111261841D01*
X97194315Y-111191567D01*
X97223809Y-111126987D01*
X97243524Y-111108631D01*
X97267260Y-111090862D01*
X97354886Y-110973808D01*
X97354886Y-110973807D01*
X97354888Y-110973805D01*
X97405988Y-110836802D01*
X97412499Y-110776239D01*
X97412499Y-109688363D01*
X97412498Y-109688351D01*
X97405989Y-109627804D01*
X97405987Y-109627796D01*
X97354888Y-109490798D01*
X97354886Y-109490793D01*
X97267260Y-109373739D01*
X97150206Y-109286113D01*
X97150201Y-109286111D01*
X97013203Y-109235012D01*
X97013195Y-109235010D01*
X96952648Y-109228501D01*
X96952637Y-109228501D01*
X96347361Y-109228501D01*
X96347349Y-109228501D01*
X96286802Y-109235010D01*
X96286799Y-109235011D01*
X96144032Y-109288261D01*
X96073217Y-109293325D01*
X96055967Y-109288261D01*
X96050206Y-109286112D01*
X95913203Y-109235012D01*
X95913201Y-109235011D01*
X95913199Y-109235011D01*
X95913198Y-109235010D01*
X95852651Y-109228501D01*
X95852640Y-109228501D01*
X95247364Y-109228501D01*
X95247352Y-109228501D01*
X95186805Y-109235010D01*
X95186804Y-109235011D01*
X95186801Y-109235011D01*
X95186801Y-109235012D01*
X95049798Y-109286112D01*
X95049796Y-109286112D01*
X95043319Y-109288529D01*
X94972503Y-109293594D01*
X94955254Y-109288529D01*
X94813094Y-109235506D01*
X94752598Y-109229001D01*
X94704001Y-109229001D01*
X94704001Y-111235601D01*
X94752586Y-111235601D01*
X94752596Y-111235600D01*
X94777031Y-111232973D01*
X94846900Y-111245578D01*
X94898863Y-111293955D01*
X94916502Y-111358251D01*
X94916502Y-111635404D01*
X94896500Y-111703525D01*
X94879597Y-111724499D01*
X94274501Y-112329595D01*
X94212189Y-112363621D01*
X94185406Y-112366500D01*
X90758200Y-112366500D01*
X90690079Y-112346498D01*
X90664563Y-112324810D01*
X90661252Y-112321133D01*
X90506752Y-112208882D01*
X90332288Y-112131206D01*
X90145487Y-112091500D01*
X89954513Y-112091500D01*
X89767711Y-112131206D01*
X89593247Y-112208882D01*
X89438744Y-112321135D01*
X89310965Y-112463048D01*
X89310958Y-112463058D01*
X89215476Y-112628438D01*
X89215473Y-112628445D01*
X89156457Y-112810072D01*
X89136496Y-113000000D01*
X88054100Y-113000000D01*
X88054100Y-112469967D01*
X88054099Y-112469950D01*
X88047590Y-112409403D01*
X88047588Y-112409395D01*
X88014668Y-112321135D01*
X87996489Y-112272396D01*
X87996488Y-112272394D01*
X87996487Y-112272392D01*
X87908861Y-112155338D01*
X87791807Y-112067712D01*
X87791802Y-112067710D01*
X87654804Y-112016611D01*
X87654796Y-112016609D01*
X87594249Y-112010100D01*
X87594238Y-112010100D01*
X86785762Y-112010100D01*
X86785750Y-112010100D01*
X86725203Y-112016609D01*
X86725195Y-112016611D01*
X86588197Y-112067710D01*
X86588192Y-112067712D01*
X86471138Y-112155338D01*
X86383512Y-112272392D01*
X86383510Y-112272397D01*
X86332411Y-112409395D01*
X86332409Y-112409403D01*
X86325900Y-112469950D01*
X86325900Y-113186600D01*
X86305898Y-113254721D01*
X86296761Y-113266057D01*
X86296795Y-113266083D01*
X86277368Y-113292034D01*
X86220532Y-113334580D01*
X86149716Y-113339644D01*
X86087404Y-113305619D01*
X86053379Y-113243306D01*
X86050500Y-113216524D01*
X86050500Y-112927526D01*
X86019028Y-112810072D01*
X86012984Y-112787515D01*
X85940509Y-112661985D01*
X85940507Y-112661983D01*
X85940503Y-112661978D01*
X85838021Y-112559496D01*
X85838011Y-112559488D01*
X85712485Y-112487016D01*
X85572475Y-112449500D01*
X83572475Y-112449500D01*
X83427525Y-112449500D01*
X83351161Y-112469962D01*
X83287514Y-112487016D01*
X83161988Y-112559488D01*
X83161978Y-112559496D01*
X83059496Y-112661978D01*
X83059488Y-112661988D01*
X82993619Y-112776078D01*
X82942236Y-112825071D01*
X82872523Y-112838507D01*
X82806612Y-112812121D01*
X82765430Y-112754288D01*
X82758500Y-112713078D01*
X82758500Y-112351367D01*
X82758499Y-112351350D01*
X82751990Y-112290803D01*
X82751988Y-112290795D01*
X82721435Y-112208882D01*
X82700889Y-112153796D01*
X82700888Y-112153794D01*
X82700887Y-112153792D01*
X82613261Y-112036738D01*
X82496207Y-111949112D01*
X82496202Y-111949110D01*
X82359204Y-111898011D01*
X82359196Y-111898009D01*
X82298649Y-111891500D01*
X82298638Y-111891500D01*
X82259500Y-111891500D01*
X82191379Y-111871498D01*
X82144886Y-111817842D01*
X82133500Y-111765500D01*
X82133500Y-111064877D01*
X82153502Y-110996756D01*
X82183847Y-110964116D01*
X82196000Y-110954991D01*
X82704000Y-110954991D01*
X82863399Y-110908681D01*
X83006502Y-110824051D01*
X83124050Y-110706503D01*
X83124051Y-110706501D01*
X83208681Y-110563401D01*
X83255065Y-110403749D01*
X83258000Y-110366456D01*
X83258000Y-109904000D01*
X82704000Y-109904000D01*
X82704000Y-110954991D01*
X82196000Y-110954991D01*
X82196000Y-110704842D01*
X82213547Y-110640702D01*
X82259145Y-110563601D01*
X82305562Y-110403831D01*
X82308499Y-110366511D01*
X82308500Y-110366511D01*
X82308500Y-109688351D01*
X88187499Y-109688351D01*
X88187499Y-110776250D01*
X88194008Y-110836797D01*
X88194010Y-110836805D01*
X88245109Y-110973803D01*
X88245111Y-110973808D01*
X88332737Y-111090862D01*
X88449791Y-111178488D01*
X88449793Y-111178489D01*
X88449795Y-111178490D01*
X88508874Y-111200525D01*
X88586794Y-111229589D01*
X88586802Y-111229591D01*
X88647349Y-111236100D01*
X88647354Y-111236100D01*
X88647361Y-111236101D01*
X88647367Y-111236101D01*
X89252631Y-111236101D01*
X89252637Y-111236101D01*
X89252644Y-111236100D01*
X89252648Y-111236100D01*
X89313195Y-111229591D01*
X89313200Y-111229590D01*
X89314527Y-111229095D01*
X89450203Y-111178490D01*
X89450205Y-111178487D01*
X89456680Y-111176073D01*
X89527496Y-111171007D01*
X89544747Y-111176072D01*
X89686907Y-111229095D01*
X89747402Y-111235600D01*
X89747415Y-111235601D01*
X89796000Y-111235601D01*
X89796000Y-109229001D01*
X89747402Y-109229001D01*
X89686904Y-109235506D01*
X89544744Y-109288528D01*
X89473928Y-109293592D01*
X89456680Y-109288528D01*
X89450203Y-109286112D01*
X89313200Y-109235012D01*
X89313198Y-109235011D01*
X89313196Y-109235011D01*
X89313195Y-109235010D01*
X89252648Y-109228501D01*
X89252637Y-109228501D01*
X88647361Y-109228501D01*
X88647349Y-109228501D01*
X88586802Y-109235010D01*
X88586794Y-109235012D01*
X88449796Y-109286111D01*
X88449791Y-109286113D01*
X88332737Y-109373739D01*
X88245111Y-109490793D01*
X88245109Y-109490798D01*
X88194010Y-109627796D01*
X88194008Y-109627804D01*
X88187499Y-109688351D01*
X82308500Y-109688351D01*
X82308500Y-109522000D01*
X82328502Y-109453879D01*
X82382158Y-109407386D01*
X82434500Y-109396000D01*
X83257999Y-109396000D01*
X83257999Y-108933543D01*
X83255065Y-108896249D01*
X83208681Y-108736599D01*
X83124051Y-108593498D01*
X83124050Y-108593496D01*
X83120002Y-108589448D01*
X83085976Y-108527136D01*
X83091041Y-108456321D01*
X83120004Y-108411255D01*
X83124453Y-108406807D01*
X83175120Y-108321134D01*
X83209143Y-108263605D01*
X83209143Y-108263603D01*
X83209145Y-108263601D01*
X83255562Y-108103831D01*
X83255894Y-108099611D01*
X83281179Y-108033273D01*
X83338317Y-107991133D01*
X83381505Y-107983500D01*
X89535406Y-107983500D01*
X89603527Y-108003502D01*
X89624501Y-108020405D01*
X90479595Y-108875499D01*
X90513621Y-108937811D01*
X90516500Y-108964594D01*
X90516500Y-109106350D01*
X90496498Y-109174471D01*
X90442842Y-109220964D01*
X90377033Y-109231628D01*
X90352605Y-109229002D01*
X90352585Y-109229001D01*
X90304000Y-109229001D01*
X90304000Y-111235601D01*
X90352585Y-111235601D01*
X90352597Y-111235600D01*
X90413092Y-111229095D01*
X90555251Y-111176073D01*
X90626067Y-111171008D01*
X90643317Y-111176073D01*
X90649794Y-111178489D01*
X90649796Y-111178490D01*
X90786799Y-111229590D01*
X90786802Y-111229590D01*
X90786803Y-111229591D01*
X90847350Y-111236100D01*
X90847355Y-111236100D01*
X90847362Y-111236101D01*
X90847368Y-111236101D01*
X91452632Y-111236101D01*
X91452638Y-111236101D01*
X91452645Y-111236100D01*
X91452649Y-111236100D01*
X91513196Y-111229591D01*
X91513197Y-111229590D01*
X91513201Y-111229590D01*
X91650204Y-111178490D01*
X91650206Y-111178488D01*
X91655966Y-111176340D01*
X91726782Y-111171274D01*
X91744034Y-111176340D01*
X91749793Y-111178488D01*
X91749796Y-111178490D01*
X91886799Y-111229590D01*
X91886801Y-111229590D01*
X91886803Y-111229591D01*
X91947350Y-111236100D01*
X91947355Y-111236100D01*
X91947362Y-111236101D01*
X91947368Y-111236101D01*
X92552632Y-111236101D01*
X92552638Y-111236101D01*
X92552645Y-111236100D01*
X92552649Y-111236100D01*
X92613196Y-111229591D01*
X92613197Y-111229590D01*
X92613201Y-111229590D01*
X92750204Y-111178490D01*
X92750206Y-111178488D01*
X92755966Y-111176340D01*
X92826782Y-111171274D01*
X92844033Y-111176340D01*
X92986796Y-111229589D01*
X92986804Y-111229591D01*
X93047351Y-111236100D01*
X93047356Y-111236100D01*
X93047363Y-111236101D01*
X93047369Y-111236101D01*
X93652633Y-111236101D01*
X93652639Y-111236101D01*
X93652646Y-111236100D01*
X93652650Y-111236100D01*
X93713197Y-111229591D01*
X93713200Y-111229590D01*
X93713202Y-111229590D01*
X93816499Y-111191062D01*
X93856683Y-111176074D01*
X93927499Y-111171008D01*
X93944748Y-111176073D01*
X94086907Y-111229095D01*
X94147403Y-111235600D01*
X94147416Y-111235601D01*
X94196001Y-111235601D01*
X94196001Y-109356199D01*
X94202168Y-109317262D01*
X94209859Y-109293594D01*
X94243542Y-109189928D01*
X94263504Y-109000000D01*
X94243542Y-108810072D01*
X94184527Y-108628444D01*
X94089040Y-108463056D01*
X94089038Y-108463054D01*
X94089034Y-108463048D01*
X93961255Y-108321135D01*
X93806752Y-108208882D01*
X93632288Y-108131206D01*
X93445487Y-108091500D01*
X93254513Y-108091500D01*
X93067711Y-108131206D01*
X92893246Y-108208882D01*
X92893245Y-108208883D01*
X92874061Y-108222822D01*
X92807193Y-108246681D01*
X92738041Y-108230600D01*
X92725939Y-108222822D01*
X92706754Y-108208883D01*
X92706753Y-108208882D01*
X92532288Y-108131206D01*
X92345487Y-108091500D01*
X92154513Y-108091500D01*
X91967711Y-108131206D01*
X91793246Y-108208882D01*
X91793243Y-108208884D01*
X91771151Y-108224935D01*
X91704283Y-108248792D01*
X91635132Y-108232709D01*
X91607998Y-108212093D01*
X91379405Y-107983500D01*
X90253833Y-106857929D01*
X90150075Y-106788600D01*
X90034785Y-106740845D01*
X89961086Y-106726185D01*
X89912396Y-106716500D01*
X89912394Y-106716500D01*
X83381505Y-106716500D01*
X83313384Y-106696498D01*
X83266891Y-106642842D01*
X83255894Y-106600390D01*
X83255562Y-106596169D01*
X83209145Y-106436399D01*
X83209143Y-106436397D01*
X83209143Y-106436394D01*
X83124455Y-106293196D01*
X83124450Y-106293189D01*
X83006810Y-106175549D01*
X83006803Y-106175544D01*
X82863605Y-106090856D01*
X82703829Y-106044437D01*
X82666511Y-106041500D01*
X82666502Y-106041500D01*
X82233498Y-106041500D01*
X82233489Y-106041500D01*
X82196171Y-106044437D01*
X82196170Y-106044437D01*
X82036394Y-106090856D01*
X81893196Y-106175544D01*
X81893189Y-106175549D01*
X81775549Y-106293189D01*
X81775544Y-106293196D01*
X81689825Y-106438139D01*
X81637932Y-106486592D01*
X81581372Y-106500000D01*
X81418628Y-106500000D01*
X81350507Y-106479998D01*
X81310175Y-106438139D01*
X81224455Y-106293196D01*
X81224450Y-106293189D01*
X81106810Y-106175549D01*
X81106803Y-106175544D01*
X80963605Y-106090856D01*
X80803829Y-106044437D01*
X80766511Y-106041500D01*
X80766502Y-106041500D01*
X80333498Y-106041500D01*
X80333489Y-106041500D01*
X80296171Y-106044437D01*
X80296170Y-106044437D01*
X80136394Y-106090856D01*
X79993196Y-106175544D01*
X79993189Y-106175549D01*
X79875549Y-106293189D01*
X79875546Y-106293193D01*
X79812446Y-106399889D01*
X79760553Y-106448341D01*
X79690702Y-106461046D01*
X79677806Y-106458997D01*
X79595487Y-106441500D01*
X79404513Y-106441500D01*
X79404512Y-106441500D01*
X79283546Y-106467212D01*
X79212755Y-106461810D01*
X79156481Y-106419474D01*
X79113261Y-106361738D01*
X78996207Y-106274112D01*
X78996202Y-106274110D01*
X78859204Y-106223011D01*
X78859196Y-106223009D01*
X78798649Y-106216500D01*
X78798638Y-106216500D01*
X77201362Y-106216500D01*
X77201350Y-106216500D01*
X77140803Y-106223009D01*
X77140795Y-106223011D01*
X77003797Y-106274110D01*
X77003792Y-106274112D01*
X76886737Y-106361739D01*
X76850554Y-106410074D01*
X76793718Y-106452620D01*
X76722902Y-106457684D01*
X76660590Y-106423658D01*
X76648818Y-106410072D01*
X76612903Y-106362095D01*
X76495965Y-106274555D01*
X76359093Y-106223505D01*
X76298597Y-106217000D01*
X75754000Y-106217000D01*
X75754000Y-108483000D01*
X76298585Y-108483000D01*
X76298597Y-108482999D01*
X76359093Y-108476494D01*
X76495964Y-108425444D01*
X76495965Y-108425444D01*
X76612903Y-108337904D01*
X76648818Y-108289927D01*
X76705653Y-108247380D01*
X76776468Y-108242314D01*
X76838781Y-108276338D01*
X76850555Y-108289925D01*
X76886740Y-108338262D01*
X77003792Y-108425887D01*
X77003794Y-108425888D01*
X77003796Y-108425889D01*
X77062875Y-108447924D01*
X77140795Y-108476988D01*
X77140803Y-108476990D01*
X77201350Y-108483499D01*
X77201355Y-108483499D01*
X77201362Y-108483500D01*
X78665500Y-108483500D01*
X78733621Y-108503502D01*
X78780114Y-108557158D01*
X78791500Y-108609500D01*
X78791500Y-109654339D01*
X78771498Y-109722460D01*
X78754595Y-109743434D01*
X78243434Y-110254595D01*
X78181122Y-110288621D01*
X78154339Y-110291500D01*
X76430216Y-110291500D01*
X76327558Y-110311920D01*
X76293338Y-110318727D01*
X76293336Y-110318727D01*
X76293335Y-110318728D01*
X76252604Y-110335600D01*
X76164399Y-110372135D01*
X76048362Y-110449669D01*
X76048360Y-110449670D01*
X74949671Y-111548357D01*
X74872134Y-111664400D01*
X74872133Y-111664401D01*
X74834369Y-111755573D01*
X74818728Y-111793334D01*
X74816931Y-111799261D01*
X74814935Y-111798655D01*
X74786421Y-111853132D01*
X74724717Y-111888248D01*
X74704715Y-111891123D01*
X74704717Y-111891139D01*
X74704273Y-111891186D01*
X74702532Y-111891437D01*
X74701358Y-111891500D01*
X74640803Y-111898009D01*
X74640795Y-111898011D01*
X74503797Y-111949110D01*
X74503792Y-111949112D01*
X74386738Y-112036738D01*
X74299112Y-112153792D01*
X74299110Y-112153797D01*
X74248011Y-112290795D01*
X74248009Y-112290803D01*
X74243047Y-112336968D01*
X74215878Y-112402560D01*
X74157561Y-112443052D01*
X74117769Y-112449500D01*
X72572475Y-112449500D01*
X72427525Y-112449500D01*
X72351161Y-112469962D01*
X72287514Y-112487016D01*
X72161988Y-112559488D01*
X72161978Y-112559496D01*
X72059496Y-112661978D01*
X72059488Y-112661988D01*
X71987016Y-112787514D01*
X71949500Y-112927526D01*
X71949500Y-119323500D01*
X71929498Y-119391621D01*
X71875842Y-119438114D01*
X71823500Y-119449500D01*
X63676500Y-119449500D01*
X63608379Y-119429498D01*
X63561886Y-119375842D01*
X63550500Y-119323500D01*
X63550500Y-108023597D01*
X74242000Y-108023597D01*
X74248505Y-108084093D01*
X74299555Y-108220964D01*
X74299555Y-108220965D01*
X74387095Y-108337904D01*
X74504034Y-108425444D01*
X74640906Y-108476494D01*
X74701402Y-108482999D01*
X74701415Y-108483000D01*
X75246000Y-108483000D01*
X75246000Y-107604000D01*
X74242000Y-107604000D01*
X74242000Y-108023597D01*
X63550500Y-108023597D01*
X63550500Y-106676402D01*
X74242000Y-106676402D01*
X74242000Y-107096000D01*
X75246000Y-107096000D01*
X75246000Y-106217000D01*
X74701402Y-106217000D01*
X74640906Y-106223505D01*
X74504035Y-106274555D01*
X74504034Y-106274555D01*
X74387095Y-106362095D01*
X74299555Y-106479034D01*
X74299555Y-106479035D01*
X74248505Y-106615906D01*
X74242000Y-106676402D01*
X63550500Y-106676402D01*
X63550500Y-101176500D01*
X63570502Y-101108379D01*
X63624158Y-101061886D01*
X63676500Y-101050500D01*
X83073500Y-101050500D01*
X83141621Y-101070502D01*
G37*
G04 #@! TD.AperFunction*
M02*
