G04 #@! TF.GenerationSoftware,KiCad,Pcbnew,8.0.2*
G04 #@! TF.CreationDate,2024-05-30T00:05:45-04:00*
G04 #@! TF.ProjectId,gc_sp2,67635f73-7032-42e6-9b69-6361645f7063,rev?*
G04 #@! TF.SameCoordinates,Original*
G04 #@! TF.FileFunction,Copper,L2,Bot*
G04 #@! TF.FilePolarity,Positive*
%FSLAX46Y46*%
G04 Gerber Fmt 4.6, Leading zero omitted, Abs format (unit mm)*
G04 Created by KiCad (PCBNEW 8.0.2) date 2024-05-30 00:05:45*
%MOMM*%
%LPD*%
G01*
G04 APERTURE LIST*
G04 #@! TA.AperFunction,SMDPad,CuDef*
%ADD10R,1.500000X7.000000*%
G04 #@! TD*
G04 #@! TA.AperFunction,ViaPad*
%ADD11C,0.800000*%
G04 #@! TD*
G04 #@! TA.AperFunction,Conductor*
%ADD12C,0.400000*%
G04 #@! TD*
G04 #@! TA.AperFunction,Conductor*
%ADD13C,0.250000*%
G04 #@! TD*
G04 APERTURE END LIST*
D10*
X76500000Y-115900000D03*
X78500000Y-115900000D03*
X80500000Y-115900000D03*
X82500000Y-115900000D03*
D11*
X92250000Y-109000000D03*
X79500000Y-107350000D03*
X84500000Y-112000000D03*
X64000000Y-119000000D03*
X71500000Y-119000000D03*
X64000000Y-107350000D03*
X71500000Y-107350000D03*
X64000000Y-101500000D03*
X71500000Y-101500000D03*
X82750000Y-101500000D03*
X71500000Y-113150000D03*
X98500000Y-106500000D03*
X92500000Y-111800000D03*
X93350000Y-109000000D03*
X90050000Y-113000000D03*
D12*
X81150000Y-109000000D02*
X79500000Y-107350000D01*
X92250000Y-109000000D02*
X81150000Y-109000000D01*
X92350105Y-108985334D02*
X92335439Y-109000000D01*
X92235334Y-109000000D02*
X92250000Y-108985334D01*
X76500000Y-115900000D02*
X76500000Y-112000000D01*
X82500000Y-115900000D02*
X82500000Y-112000000D01*
D13*
X78500000Y-115900000D02*
X78500000Y-116250000D01*
X78500000Y-112000000D02*
X78500000Y-115900000D01*
X91850000Y-110500000D02*
X80000000Y-110500000D01*
X80000000Y-110500000D02*
X78500000Y-112000000D01*
X93350000Y-109000000D02*
X91850000Y-110500000D01*
X90050000Y-113000000D02*
X87950000Y-110900000D01*
X80500000Y-112000000D02*
X80500000Y-115900000D01*
X81600000Y-110900000D02*
X80500000Y-112000000D01*
X87950000Y-110900000D02*
X81600000Y-110900000D01*
G04 #@! TA.AperFunction,Conductor*
G36*
X83141621Y-101070502D02*
G01*
X83188114Y-101124158D01*
X83199500Y-101176500D01*
X83199500Y-105572473D01*
X83199499Y-105572473D01*
X83237016Y-105712485D01*
X83309488Y-105838011D01*
X83309496Y-105838021D01*
X83411978Y-105940503D01*
X83411983Y-105940507D01*
X83411985Y-105940509D01*
X83537515Y-106012984D01*
X83677525Y-106050500D01*
X98823500Y-106050500D01*
X98891621Y-106070502D01*
X98938114Y-106124158D01*
X98949500Y-106176500D01*
X98949500Y-119323500D01*
X98929498Y-119391621D01*
X98875842Y-119438114D01*
X98823500Y-119449500D01*
X86176500Y-119449500D01*
X86108379Y-119429498D01*
X86061886Y-119375842D01*
X86050500Y-119323500D01*
X86050500Y-112927526D01*
X86050500Y-112927525D01*
X86012984Y-112787515D01*
X85940509Y-112661985D01*
X85940507Y-112661983D01*
X85940503Y-112661978D01*
X85838021Y-112559496D01*
X85838011Y-112559488D01*
X85712485Y-112487016D01*
X85572475Y-112449500D01*
X83881726Y-112449500D01*
X83813605Y-112429498D01*
X83767112Y-112375842D01*
X83756448Y-112336971D01*
X83751494Y-112290905D01*
X83700444Y-112154035D01*
X83700444Y-112154034D01*
X83612904Y-112037095D01*
X83495965Y-111949555D01*
X83359093Y-111898505D01*
X83298597Y-111892000D01*
X82754000Y-111892000D01*
X82754000Y-113000000D01*
X82246000Y-113000000D01*
X82246000Y-111892000D01*
X81808095Y-111892000D01*
X81739974Y-111871998D01*
X81693481Y-111818342D01*
X81683377Y-111748068D01*
X81712871Y-111683488D01*
X81719000Y-111676905D01*
X81825500Y-111570405D01*
X81887812Y-111536379D01*
X81914595Y-111533500D01*
X87635406Y-111533500D01*
X87703527Y-111553502D01*
X87724501Y-111570405D01*
X89102877Y-112948781D01*
X89136903Y-113011093D01*
X89139092Y-113024705D01*
X89156457Y-113189927D01*
X89186526Y-113282470D01*
X89215473Y-113371556D01*
X89215476Y-113371561D01*
X89310958Y-113536941D01*
X89310965Y-113536951D01*
X89438744Y-113678864D01*
X89438747Y-113678866D01*
X89593248Y-113791118D01*
X89767712Y-113868794D01*
X89954513Y-113908500D01*
X90145487Y-113908500D01*
X90332288Y-113868794D01*
X90506752Y-113791118D01*
X90661253Y-113678866D01*
X90789040Y-113536944D01*
X90884527Y-113371556D01*
X90943542Y-113189928D01*
X90963504Y-113000000D01*
X90943542Y-112810072D01*
X90884527Y-112628444D01*
X90789040Y-112463056D01*
X90789038Y-112463054D01*
X90789034Y-112463048D01*
X90661255Y-112321135D01*
X90506752Y-112208882D01*
X90332288Y-112131206D01*
X90145487Y-112091500D01*
X90089594Y-112091500D01*
X90021473Y-112071498D01*
X90000499Y-112054595D01*
X89294499Y-111348595D01*
X89260473Y-111286283D01*
X89265538Y-111215468D01*
X89308085Y-111158632D01*
X89374605Y-111133821D01*
X89383594Y-111133500D01*
X91912393Y-111133500D01*
X91912394Y-111133500D01*
X92034785Y-111109155D01*
X92150075Y-111061400D01*
X92253833Y-110992071D01*
X93300499Y-109945405D01*
X93362811Y-109911379D01*
X93389594Y-109908500D01*
X93445487Y-109908500D01*
X93632288Y-109868794D01*
X93806752Y-109791118D01*
X93961253Y-109678866D01*
X94005813Y-109629377D01*
X94089034Y-109536951D01*
X94089035Y-109536949D01*
X94089040Y-109536944D01*
X94184527Y-109371556D01*
X94243542Y-109189928D01*
X94263504Y-109000000D01*
X94243542Y-108810072D01*
X94184527Y-108628444D01*
X94089040Y-108463056D01*
X94089038Y-108463054D01*
X94089034Y-108463048D01*
X93961255Y-108321135D01*
X93806752Y-108208882D01*
X93632288Y-108131206D01*
X93445487Y-108091500D01*
X93254513Y-108091500D01*
X93067711Y-108131206D01*
X92893246Y-108208882D01*
X92893245Y-108208883D01*
X92874061Y-108222822D01*
X92807193Y-108246681D01*
X92738041Y-108230600D01*
X92725939Y-108222822D01*
X92706754Y-108208883D01*
X92706753Y-108208882D01*
X92532288Y-108131206D01*
X92345487Y-108091500D01*
X92154513Y-108091500D01*
X91967711Y-108131206D01*
X91793247Y-108208882D01*
X91712656Y-108267436D01*
X91645788Y-108291294D01*
X91638595Y-108291500D01*
X81495661Y-108291500D01*
X81427540Y-108271498D01*
X81406566Y-108254595D01*
X80434664Y-107282693D01*
X80400638Y-107220381D01*
X80398449Y-107206766D01*
X80393542Y-107160075D01*
X80393541Y-107160069D01*
X80334527Y-106978444D01*
X80239040Y-106813056D01*
X80239038Y-106813054D01*
X80239034Y-106813048D01*
X80111255Y-106671135D01*
X79956752Y-106558882D01*
X79782288Y-106481206D01*
X79595487Y-106441500D01*
X79404513Y-106441500D01*
X79217711Y-106481206D01*
X79043247Y-106558882D01*
X78888744Y-106671135D01*
X78760965Y-106813048D01*
X78760958Y-106813058D01*
X78665476Y-106978438D01*
X78665473Y-106978445D01*
X78606457Y-107160072D01*
X78586496Y-107350000D01*
X78606457Y-107539927D01*
X78636526Y-107632470D01*
X78665473Y-107721556D01*
X78665476Y-107721561D01*
X78760958Y-107886941D01*
X78760965Y-107886951D01*
X78888744Y-108028864D01*
X78888747Y-108028866D01*
X79043248Y-108141118D01*
X79217712Y-108218794D01*
X79370568Y-108251284D01*
X79433040Y-108285012D01*
X79433465Y-108285436D01*
X80698351Y-109550323D01*
X80698357Y-109550328D01*
X80814399Y-109627865D01*
X80814406Y-109627867D01*
X80817229Y-109629377D01*
X80818435Y-109630561D01*
X80819546Y-109631304D01*
X80819405Y-109631514D01*
X80867878Y-109679129D01*
X80883588Y-109748366D01*
X80859373Y-109815105D01*
X80802919Y-109858158D01*
X80757834Y-109866500D01*
X79937603Y-109866500D01*
X79864568Y-109881028D01*
X79815215Y-109890845D01*
X79815213Y-109890845D01*
X79815212Y-109890846D01*
X79699923Y-109938601D01*
X79596171Y-110007926D01*
X79596164Y-110007931D01*
X78007931Y-111596164D01*
X78007929Y-111596167D01*
X77938600Y-111699925D01*
X77918659Y-111748068D01*
X77891465Y-111813719D01*
X77846916Y-111868999D01*
X77779553Y-111891420D01*
X77775056Y-111891500D01*
X77701350Y-111891500D01*
X77640803Y-111898009D01*
X77640799Y-111898010D01*
X77543316Y-111934370D01*
X77472500Y-111939434D01*
X77455252Y-111934370D01*
X77359094Y-111898505D01*
X77298597Y-111892000D01*
X76754000Y-111892000D01*
X76754000Y-113000000D01*
X76246000Y-113000000D01*
X76246000Y-111892000D01*
X75701402Y-111892000D01*
X75640906Y-111898505D01*
X75504035Y-111949555D01*
X75504034Y-111949555D01*
X75387095Y-112037095D01*
X75299555Y-112154034D01*
X75299555Y-112154035D01*
X75248505Y-112290906D01*
X75242000Y-112351402D01*
X75242000Y-112713944D01*
X75221998Y-112782065D01*
X75168342Y-112828558D01*
X75098068Y-112838662D01*
X75033488Y-112809168D01*
X75006881Y-112776944D01*
X74940511Y-112661988D01*
X74940503Y-112661978D01*
X74838021Y-112559496D01*
X74838011Y-112559488D01*
X74712485Y-112487016D01*
X74572475Y-112449500D01*
X72572475Y-112449500D01*
X72427525Y-112449500D01*
X72334185Y-112474510D01*
X72287514Y-112487016D01*
X72161988Y-112559488D01*
X72161978Y-112559496D01*
X72059496Y-112661978D01*
X72059488Y-112661988D01*
X71987016Y-112787514D01*
X71949500Y-112927526D01*
X71949500Y-119323500D01*
X71929498Y-119391621D01*
X71875842Y-119438114D01*
X71823500Y-119449500D01*
X63676500Y-119449500D01*
X63608379Y-119429498D01*
X63561886Y-119375842D01*
X63550500Y-119323500D01*
X63550500Y-101176500D01*
X63570502Y-101108379D01*
X63624158Y-101061886D01*
X63676500Y-101050500D01*
X83073500Y-101050500D01*
X83141621Y-101070502D01*
G37*
G04 #@! TD.AperFunction*
M02*
