G04 #@! TF.GenerationSoftware,KiCad,Pcbnew,8.0.2*
G04 #@! TF.CreationDate,2024-05-30T00:05:45-04:00*
G04 #@! TF.ProjectId,gc_sp2,67635f73-7032-42e6-9b69-6361645f7063,rev?*
G04 #@! TF.SameCoordinates,Original*
G04 #@! TF.FileFunction,Legend,Top*
G04 #@! TF.FilePolarity,Positive*
%FSLAX46Y46*%
G04 Gerber Fmt 4.6, Leading zero omitted, Abs format (unit mm)*
G04 Created by KiCad (PCBNEW 8.0.2) date 2024-05-30 00:05:45*
%MOMM*%
%LPD*%
G01*
G04 APERTURE LIST*
%ADD10C,0.300000*%
%ADD11C,0.100000*%
%ADD12C,0.150000*%
%ADD13C,0.120000*%
%ADD14C,0.152400*%
G04 APERTURE END LIST*
D10*
X64785715Y-101970870D02*
X65642858Y-101970870D01*
X65214286Y-103470870D02*
X65214286Y-101970870D01*
X66142857Y-103470870D02*
X66142857Y-101970870D01*
X66142857Y-102685156D02*
X67000000Y-102685156D01*
X67000000Y-103470870D02*
X67000000Y-101970870D01*
X67714286Y-103470870D02*
X67714286Y-101970870D01*
X68357144Y-103399442D02*
X68571430Y-103470870D01*
X68571430Y-103470870D02*
X68928572Y-103470870D01*
X68928572Y-103470870D02*
X69071430Y-103399442D01*
X69071430Y-103399442D02*
X69142858Y-103328013D01*
X69142858Y-103328013D02*
X69214287Y-103185156D01*
X69214287Y-103185156D02*
X69214287Y-103042299D01*
X69214287Y-103042299D02*
X69142858Y-102899442D01*
X69142858Y-102899442D02*
X69071430Y-102828013D01*
X69071430Y-102828013D02*
X68928572Y-102756584D01*
X68928572Y-102756584D02*
X68642858Y-102685156D01*
X68642858Y-102685156D02*
X68500001Y-102613727D01*
X68500001Y-102613727D02*
X68428572Y-102542299D01*
X68428572Y-102542299D02*
X68357144Y-102399442D01*
X68357144Y-102399442D02*
X68357144Y-102256584D01*
X68357144Y-102256584D02*
X68428572Y-102113727D01*
X68428572Y-102113727D02*
X68500001Y-102042299D01*
X68500001Y-102042299D02*
X68642858Y-101970870D01*
X68642858Y-101970870D02*
X69000001Y-101970870D01*
X69000001Y-101970870D02*
X69214287Y-102042299D01*
X70928572Y-103399442D02*
X71142858Y-103470870D01*
X71142858Y-103470870D02*
X71500000Y-103470870D01*
X71500000Y-103470870D02*
X71642858Y-103399442D01*
X71642858Y-103399442D02*
X71714286Y-103328013D01*
X71714286Y-103328013D02*
X71785715Y-103185156D01*
X71785715Y-103185156D02*
X71785715Y-103042299D01*
X71785715Y-103042299D02*
X71714286Y-102899442D01*
X71714286Y-102899442D02*
X71642858Y-102828013D01*
X71642858Y-102828013D02*
X71500000Y-102756584D01*
X71500000Y-102756584D02*
X71214286Y-102685156D01*
X71214286Y-102685156D02*
X71071429Y-102613727D01*
X71071429Y-102613727D02*
X71000000Y-102542299D01*
X71000000Y-102542299D02*
X70928572Y-102399442D01*
X70928572Y-102399442D02*
X70928572Y-102256584D01*
X70928572Y-102256584D02*
X71000000Y-102113727D01*
X71000000Y-102113727D02*
X71071429Y-102042299D01*
X71071429Y-102042299D02*
X71214286Y-101970870D01*
X71214286Y-101970870D02*
X71571429Y-101970870D01*
X71571429Y-101970870D02*
X71785715Y-102042299D01*
X72428571Y-103470870D02*
X72428571Y-101970870D01*
X73142857Y-103470870D02*
X73142857Y-101970870D01*
X73142857Y-101970870D02*
X73500000Y-101970870D01*
X73500000Y-101970870D02*
X73714286Y-102042299D01*
X73714286Y-102042299D02*
X73857143Y-102185156D01*
X73857143Y-102185156D02*
X73928572Y-102328013D01*
X73928572Y-102328013D02*
X74000000Y-102613727D01*
X74000000Y-102613727D02*
X74000000Y-102828013D01*
X74000000Y-102828013D02*
X73928572Y-103113727D01*
X73928572Y-103113727D02*
X73857143Y-103256584D01*
X73857143Y-103256584D02*
X73714286Y-103399442D01*
X73714286Y-103399442D02*
X73500000Y-103470870D01*
X73500000Y-103470870D02*
X73142857Y-103470870D01*
X74642857Y-102685156D02*
X75142857Y-102685156D01*
X75357143Y-103470870D02*
X74642857Y-103470870D01*
X74642857Y-103470870D02*
X74642857Y-101970870D01*
X74642857Y-101970870D02*
X75357143Y-101970870D01*
X77642857Y-102685156D02*
X77142857Y-102685156D01*
X77142857Y-103470870D02*
X77142857Y-101970870D01*
X77142857Y-101970870D02*
X77857143Y-101970870D01*
X78357143Y-103042299D02*
X79071429Y-103042299D01*
X78214286Y-103470870D02*
X78714286Y-101970870D01*
X78714286Y-101970870D02*
X79214286Y-103470870D01*
X80571428Y-103328013D02*
X80500000Y-103399442D01*
X80500000Y-103399442D02*
X80285714Y-103470870D01*
X80285714Y-103470870D02*
X80142857Y-103470870D01*
X80142857Y-103470870D02*
X79928571Y-103399442D01*
X79928571Y-103399442D02*
X79785714Y-103256584D01*
X79785714Y-103256584D02*
X79714285Y-103113727D01*
X79714285Y-103113727D02*
X79642857Y-102828013D01*
X79642857Y-102828013D02*
X79642857Y-102613727D01*
X79642857Y-102613727D02*
X79714285Y-102328013D01*
X79714285Y-102328013D02*
X79785714Y-102185156D01*
X79785714Y-102185156D02*
X79928571Y-102042299D01*
X79928571Y-102042299D02*
X80142857Y-101970870D01*
X80142857Y-101970870D02*
X80285714Y-101970870D01*
X80285714Y-101970870D02*
X80500000Y-102042299D01*
X80500000Y-102042299D02*
X80571428Y-102113727D01*
X81214285Y-102685156D02*
X81714285Y-102685156D01*
X81928571Y-103470870D02*
X81214285Y-103470870D01*
X81214285Y-103470870D02*
X81214285Y-101970870D01*
X81214285Y-101970870D02*
X81928571Y-101970870D01*
X70714285Y-105885786D02*
X70714285Y-104385786D01*
X71428571Y-105885786D02*
X71428571Y-104385786D01*
X71428571Y-104385786D02*
X72285714Y-105885786D01*
X72285714Y-105885786D02*
X72285714Y-104385786D01*
X72928572Y-105814358D02*
X73142858Y-105885786D01*
X73142858Y-105885786D02*
X73500000Y-105885786D01*
X73500000Y-105885786D02*
X73642858Y-105814358D01*
X73642858Y-105814358D02*
X73714286Y-105742929D01*
X73714286Y-105742929D02*
X73785715Y-105600072D01*
X73785715Y-105600072D02*
X73785715Y-105457215D01*
X73785715Y-105457215D02*
X73714286Y-105314358D01*
X73714286Y-105314358D02*
X73642858Y-105242929D01*
X73642858Y-105242929D02*
X73500000Y-105171500D01*
X73500000Y-105171500D02*
X73214286Y-105100072D01*
X73214286Y-105100072D02*
X73071429Y-105028643D01*
X73071429Y-105028643D02*
X73000000Y-104957215D01*
X73000000Y-104957215D02*
X72928572Y-104814358D01*
X72928572Y-104814358D02*
X72928572Y-104671500D01*
X72928572Y-104671500D02*
X73000000Y-104528643D01*
X73000000Y-104528643D02*
X73071429Y-104457215D01*
X73071429Y-104457215D02*
X73214286Y-104385786D01*
X73214286Y-104385786D02*
X73571429Y-104385786D01*
X73571429Y-104385786D02*
X73785715Y-104457215D01*
X74428571Y-105885786D02*
X74428571Y-104385786D01*
X75142857Y-105885786D02*
X75142857Y-104385786D01*
X75142857Y-104385786D02*
X75500000Y-104385786D01*
X75500000Y-104385786D02*
X75714286Y-104457215D01*
X75714286Y-104457215D02*
X75857143Y-104600072D01*
X75857143Y-104600072D02*
X75928572Y-104742929D01*
X75928572Y-104742929D02*
X76000000Y-105028643D01*
X76000000Y-105028643D02*
X76000000Y-105242929D01*
X76000000Y-105242929D02*
X75928572Y-105528643D01*
X75928572Y-105528643D02*
X75857143Y-105671500D01*
X75857143Y-105671500D02*
X75714286Y-105814358D01*
X75714286Y-105814358D02*
X75500000Y-105885786D01*
X75500000Y-105885786D02*
X75142857Y-105885786D01*
X76642857Y-105100072D02*
X77142857Y-105100072D01*
X77357143Y-105885786D02*
X76642857Y-105885786D01*
X76642857Y-105885786D02*
X76642857Y-104385786D01*
X76642857Y-104385786D02*
X77357143Y-104385786D01*
D11*
X89178571Y-109364895D02*
X88721428Y-109364895D01*
X88950000Y-109364895D02*
X88950000Y-108564895D01*
X88950000Y-108564895D02*
X88873809Y-108679180D01*
X88873809Y-108679180D02*
X88797619Y-108755371D01*
X88797619Y-108755371D02*
X88721428Y-108793466D01*
X89821428Y-108641085D02*
X89859524Y-108602990D01*
X89859524Y-108602990D02*
X89935714Y-108564895D01*
X89935714Y-108564895D02*
X90126190Y-108564895D01*
X90126190Y-108564895D02*
X90202381Y-108602990D01*
X90202381Y-108602990D02*
X90240476Y-108641085D01*
X90240476Y-108641085D02*
X90278571Y-108717276D01*
X90278571Y-108717276D02*
X90278571Y-108793466D01*
X90278571Y-108793466D02*
X90240476Y-108907752D01*
X90240476Y-108907752D02*
X89783333Y-109364895D01*
X89783333Y-109364895D02*
X90278571Y-109364895D01*
X90883333Y-108564895D02*
X91378571Y-108564895D01*
X91378571Y-108564895D02*
X91111905Y-108869657D01*
X91111905Y-108869657D02*
X91226190Y-108869657D01*
X91226190Y-108869657D02*
X91302381Y-108907752D01*
X91302381Y-108907752D02*
X91340476Y-108945847D01*
X91340476Y-108945847D02*
X91378571Y-109022038D01*
X91378571Y-109022038D02*
X91378571Y-109212514D01*
X91378571Y-109212514D02*
X91340476Y-109288704D01*
X91340476Y-109288704D02*
X91302381Y-109326800D01*
X91302381Y-109326800D02*
X91226190Y-109364895D01*
X91226190Y-109364895D02*
X90997619Y-109364895D01*
X90997619Y-109364895D02*
X90921428Y-109326800D01*
X90921428Y-109326800D02*
X90883333Y-109288704D01*
X92402381Y-108831561D02*
X92402381Y-109364895D01*
X92211905Y-108526800D02*
X92021428Y-109098228D01*
X92021428Y-109098228D02*
X92516667Y-109098228D01*
X93540476Y-108564895D02*
X93159524Y-108564895D01*
X93159524Y-108564895D02*
X93121428Y-108945847D01*
X93121428Y-108945847D02*
X93159524Y-108907752D01*
X93159524Y-108907752D02*
X93235714Y-108869657D01*
X93235714Y-108869657D02*
X93426190Y-108869657D01*
X93426190Y-108869657D02*
X93502381Y-108907752D01*
X93502381Y-108907752D02*
X93540476Y-108945847D01*
X93540476Y-108945847D02*
X93578571Y-109022038D01*
X93578571Y-109022038D02*
X93578571Y-109212514D01*
X93578571Y-109212514D02*
X93540476Y-109288704D01*
X93540476Y-109288704D02*
X93502381Y-109326800D01*
X93502381Y-109326800D02*
X93426190Y-109364895D01*
X93426190Y-109364895D02*
X93235714Y-109364895D01*
X93235714Y-109364895D02*
X93159524Y-109326800D01*
X93159524Y-109326800D02*
X93121428Y-109288704D01*
X94602381Y-108564895D02*
X94450000Y-108564895D01*
X94450000Y-108564895D02*
X94373809Y-108602990D01*
X94373809Y-108602990D02*
X94335714Y-108641085D01*
X94335714Y-108641085D02*
X94259524Y-108755371D01*
X94259524Y-108755371D02*
X94221428Y-108907752D01*
X94221428Y-108907752D02*
X94221428Y-109212514D01*
X94221428Y-109212514D02*
X94259524Y-109288704D01*
X94259524Y-109288704D02*
X94297619Y-109326800D01*
X94297619Y-109326800D02*
X94373809Y-109364895D01*
X94373809Y-109364895D02*
X94526190Y-109364895D01*
X94526190Y-109364895D02*
X94602381Y-109326800D01*
X94602381Y-109326800D02*
X94640476Y-109288704D01*
X94640476Y-109288704D02*
X94678571Y-109212514D01*
X94678571Y-109212514D02*
X94678571Y-109022038D01*
X94678571Y-109022038D02*
X94640476Y-108945847D01*
X94640476Y-108945847D02*
X94602381Y-108907752D01*
X94602381Y-108907752D02*
X94526190Y-108869657D01*
X94526190Y-108869657D02*
X94373809Y-108869657D01*
X94373809Y-108869657D02*
X94297619Y-108907752D01*
X94297619Y-108907752D02*
X94259524Y-108945847D01*
X94259524Y-108945847D02*
X94221428Y-109022038D01*
X95283333Y-108564895D02*
X95816667Y-108564895D01*
X95816667Y-108564895D02*
X95473809Y-109364895D01*
D12*
X79954819Y-112163220D02*
X78954819Y-112163220D01*
X78954819Y-112163220D02*
X78954819Y-111925125D01*
X78954819Y-111925125D02*
X79002438Y-111782268D01*
X79002438Y-111782268D02*
X79097676Y-111687030D01*
X79097676Y-111687030D02*
X79192914Y-111639411D01*
X79192914Y-111639411D02*
X79383390Y-111591792D01*
X79383390Y-111591792D02*
X79526247Y-111591792D01*
X79526247Y-111591792D02*
X79716723Y-111639411D01*
X79716723Y-111639411D02*
X79811961Y-111687030D01*
X79811961Y-111687030D02*
X79907200Y-111782268D01*
X79907200Y-111782268D02*
X79954819Y-111925125D01*
X79954819Y-111925125D02*
X79954819Y-112163220D01*
X79954819Y-111163220D02*
X78954819Y-111163220D01*
X78054819Y-112163220D02*
X77054819Y-112163220D01*
X78054819Y-111687030D02*
X77054819Y-111687030D01*
X77054819Y-111687030D02*
X78054819Y-111115602D01*
X78054819Y-111115602D02*
X77054819Y-111115602D01*
X77054819Y-110782268D02*
X77054819Y-110210840D01*
X78054819Y-110496554D02*
X77054819Y-110496554D01*
X75573866Y-112163220D02*
X75573866Y-111401316D01*
X75954819Y-111782268D02*
X75192914Y-111782268D01*
X74954819Y-111020363D02*
X74954819Y-110401316D01*
X74954819Y-110401316D02*
X75335771Y-110734649D01*
X75335771Y-110734649D02*
X75335771Y-110591792D01*
X75335771Y-110591792D02*
X75383390Y-110496554D01*
X75383390Y-110496554D02*
X75431009Y-110448935D01*
X75431009Y-110448935D02*
X75526247Y-110401316D01*
X75526247Y-110401316D02*
X75764342Y-110401316D01*
X75764342Y-110401316D02*
X75859580Y-110448935D01*
X75859580Y-110448935D02*
X75907200Y-110496554D01*
X75907200Y-110496554D02*
X75954819Y-110591792D01*
X75954819Y-110591792D02*
X75954819Y-110877506D01*
X75954819Y-110877506D02*
X75907200Y-110972744D01*
X75907200Y-110972744D02*
X75859580Y-111020363D01*
X75859580Y-109972744D02*
X75907200Y-109925125D01*
X75907200Y-109925125D02*
X75954819Y-109972744D01*
X75954819Y-109972744D02*
X75907200Y-110020363D01*
X75907200Y-110020363D02*
X75859580Y-109972744D01*
X75859580Y-109972744D02*
X75954819Y-109972744D01*
X74954819Y-109591792D02*
X74954819Y-108972745D01*
X74954819Y-108972745D02*
X75335771Y-109306078D01*
X75335771Y-109306078D02*
X75335771Y-109163221D01*
X75335771Y-109163221D02*
X75383390Y-109067983D01*
X75383390Y-109067983D02*
X75431009Y-109020364D01*
X75431009Y-109020364D02*
X75526247Y-108972745D01*
X75526247Y-108972745D02*
X75764342Y-108972745D01*
X75764342Y-108972745D02*
X75859580Y-109020364D01*
X75859580Y-109020364D02*
X75907200Y-109067983D01*
X75907200Y-109067983D02*
X75954819Y-109163221D01*
X75954819Y-109163221D02*
X75954819Y-109448935D01*
X75954819Y-109448935D02*
X75907200Y-109544173D01*
X75907200Y-109544173D02*
X75859580Y-109591792D01*
X64234648Y-111728628D02*
X64187029Y-111681009D01*
X64187029Y-111681009D02*
X64091791Y-111633390D01*
X64091791Y-111633390D02*
X63996553Y-111633390D01*
X63996553Y-111633390D02*
X63901315Y-111681009D01*
X63901315Y-111681009D02*
X63853696Y-111728628D01*
X63853696Y-111728628D02*
X63806077Y-111823866D01*
X63806077Y-111823866D02*
X63806077Y-111919104D01*
X63806077Y-111919104D02*
X63853696Y-112014342D01*
X63853696Y-112014342D02*
X63901315Y-112061961D01*
X63901315Y-112061961D02*
X63996553Y-112109580D01*
X63996553Y-112109580D02*
X64091791Y-112109580D01*
X64091791Y-112109580D02*
X64187029Y-112061961D01*
X64187029Y-112061961D02*
X64234648Y-112014342D01*
X64234648Y-111633390D02*
X64234648Y-112014342D01*
X64234648Y-112014342D02*
X64282267Y-112061961D01*
X64282267Y-112061961D02*
X64329886Y-112061961D01*
X64329886Y-112061961D02*
X64425125Y-112014342D01*
X64425125Y-112014342D02*
X64472744Y-111919104D01*
X64472744Y-111919104D02*
X64472744Y-111681009D01*
X64472744Y-111681009D02*
X64377506Y-111538152D01*
X64377506Y-111538152D02*
X64234648Y-111442914D01*
X64234648Y-111442914D02*
X64044172Y-111395295D01*
X64044172Y-111395295D02*
X63853696Y-111442914D01*
X63853696Y-111442914D02*
X63710839Y-111538152D01*
X63710839Y-111538152D02*
X63615601Y-111681009D01*
X63615601Y-111681009D02*
X63567982Y-111871485D01*
X63567982Y-111871485D02*
X63615601Y-112061961D01*
X63615601Y-112061961D02*
X63710839Y-112204819D01*
X63710839Y-112204819D02*
X63853696Y-112300057D01*
X63853696Y-112300057D02*
X64044172Y-112347676D01*
X64044172Y-112347676D02*
X64234648Y-112300057D01*
X64234648Y-112300057D02*
X64377506Y-112204819D01*
X65329886Y-112157200D02*
X65234648Y-112204819D01*
X65234648Y-112204819D02*
X65044172Y-112204819D01*
X65044172Y-112204819D02*
X64948934Y-112157200D01*
X64948934Y-112157200D02*
X64901315Y-112109580D01*
X64901315Y-112109580D02*
X64853696Y-112014342D01*
X64853696Y-112014342D02*
X64853696Y-111728628D01*
X64853696Y-111728628D02*
X64901315Y-111633390D01*
X64901315Y-111633390D02*
X64948934Y-111585771D01*
X64948934Y-111585771D02*
X65044172Y-111538152D01*
X65044172Y-111538152D02*
X65234648Y-111538152D01*
X65234648Y-111538152D02*
X65329886Y-111585771D01*
X65758458Y-112204819D02*
X65758458Y-111538152D01*
X65758458Y-111204819D02*
X65710839Y-111252438D01*
X65710839Y-111252438D02*
X65758458Y-111300057D01*
X65758458Y-111300057D02*
X65806077Y-111252438D01*
X65806077Y-111252438D02*
X65758458Y-111204819D01*
X65758458Y-111204819D02*
X65758458Y-111300057D01*
X66091791Y-111538152D02*
X66472743Y-111538152D01*
X66234648Y-111204819D02*
X66234648Y-112061961D01*
X66234648Y-112061961D02*
X66282267Y-112157200D01*
X66282267Y-112157200D02*
X66377505Y-112204819D01*
X66377505Y-112204819D02*
X66472743Y-112204819D01*
X66806077Y-112204819D02*
X66806077Y-111538152D01*
X66806077Y-111728628D02*
X66853696Y-111633390D01*
X66853696Y-111633390D02*
X66901315Y-111585771D01*
X66901315Y-111585771D02*
X66996553Y-111538152D01*
X66996553Y-111538152D02*
X67091791Y-111538152D01*
X67853696Y-111538152D02*
X67853696Y-112204819D01*
X67425125Y-111538152D02*
X67425125Y-112061961D01*
X67425125Y-112061961D02*
X67472744Y-112157200D01*
X67472744Y-112157200D02*
X67567982Y-112204819D01*
X67567982Y-112204819D02*
X67710839Y-112204819D01*
X67710839Y-112204819D02*
X67806077Y-112157200D01*
X67806077Y-112157200D02*
X67853696Y-112109580D01*
X68282268Y-112157200D02*
X68377506Y-112204819D01*
X68377506Y-112204819D02*
X68567982Y-112204819D01*
X68567982Y-112204819D02*
X68663220Y-112157200D01*
X68663220Y-112157200D02*
X68710839Y-112061961D01*
X68710839Y-112061961D02*
X68710839Y-112014342D01*
X68710839Y-112014342D02*
X68663220Y-111919104D01*
X68663220Y-111919104D02*
X68567982Y-111871485D01*
X68567982Y-111871485D02*
X68425125Y-111871485D01*
X68425125Y-111871485D02*
X68329887Y-111823866D01*
X68329887Y-111823866D02*
X68282268Y-111728628D01*
X68282268Y-111728628D02*
X68282268Y-111681009D01*
X68282268Y-111681009D02*
X68329887Y-111585771D01*
X68329887Y-111585771D02*
X68425125Y-111538152D01*
X68425125Y-111538152D02*
X68567982Y-111538152D01*
X68567982Y-111538152D02*
X68663220Y-111585771D01*
X69044173Y-111204819D02*
X69663220Y-111204819D01*
X69663220Y-111204819D02*
X69329887Y-111585771D01*
X69329887Y-111585771D02*
X69472744Y-111585771D01*
X69472744Y-111585771D02*
X69567982Y-111633390D01*
X69567982Y-111633390D02*
X69615601Y-111681009D01*
X69615601Y-111681009D02*
X69663220Y-111776247D01*
X69663220Y-111776247D02*
X69663220Y-112014342D01*
X69663220Y-112014342D02*
X69615601Y-112109580D01*
X69615601Y-112109580D02*
X69567982Y-112157200D01*
X69567982Y-112157200D02*
X69472744Y-112204819D01*
X69472744Y-112204819D02*
X69187030Y-112204819D01*
X69187030Y-112204819D02*
X69091792Y-112157200D01*
X69091792Y-112157200D02*
X69044173Y-112109580D01*
X70282268Y-111204819D02*
X70377506Y-111204819D01*
X70377506Y-111204819D02*
X70472744Y-111252438D01*
X70472744Y-111252438D02*
X70520363Y-111300057D01*
X70520363Y-111300057D02*
X70567982Y-111395295D01*
X70567982Y-111395295D02*
X70615601Y-111585771D01*
X70615601Y-111585771D02*
X70615601Y-111823866D01*
X70615601Y-111823866D02*
X70567982Y-112014342D01*
X70567982Y-112014342D02*
X70520363Y-112109580D01*
X70520363Y-112109580D02*
X70472744Y-112157200D01*
X70472744Y-112157200D02*
X70377506Y-112204819D01*
X70377506Y-112204819D02*
X70282268Y-112204819D01*
X70282268Y-112204819D02*
X70187030Y-112157200D01*
X70187030Y-112157200D02*
X70139411Y-112109580D01*
X70139411Y-112109580D02*
X70091792Y-112014342D01*
X70091792Y-112014342D02*
X70044173Y-111823866D01*
X70044173Y-111823866D02*
X70044173Y-111585771D01*
X70044173Y-111585771D02*
X70091792Y-111395295D01*
X70091792Y-111395295D02*
X70139411Y-111300057D01*
X70139411Y-111300057D02*
X70187030Y-111252438D01*
X70187030Y-111252438D02*
X70282268Y-111204819D01*
X71234649Y-111204819D02*
X71329887Y-111204819D01*
X71329887Y-111204819D02*
X71425125Y-111252438D01*
X71425125Y-111252438D02*
X71472744Y-111300057D01*
X71472744Y-111300057D02*
X71520363Y-111395295D01*
X71520363Y-111395295D02*
X71567982Y-111585771D01*
X71567982Y-111585771D02*
X71567982Y-111823866D01*
X71567982Y-111823866D02*
X71520363Y-112014342D01*
X71520363Y-112014342D02*
X71472744Y-112109580D01*
X71472744Y-112109580D02*
X71425125Y-112157200D01*
X71425125Y-112157200D02*
X71329887Y-112204819D01*
X71329887Y-112204819D02*
X71234649Y-112204819D01*
X71234649Y-112204819D02*
X71139411Y-112157200D01*
X71139411Y-112157200D02*
X71091792Y-112109580D01*
X71091792Y-112109580D02*
X71044173Y-112014342D01*
X71044173Y-112014342D02*
X70996554Y-111823866D01*
X70996554Y-111823866D02*
X70996554Y-111585771D01*
X70996554Y-111585771D02*
X71044173Y-111395295D01*
X71044173Y-111395295D02*
X71091792Y-111300057D01*
X71091792Y-111300057D02*
X71139411Y-111252438D01*
X71139411Y-111252438D02*
X71234649Y-111204819D01*
X72187030Y-111204819D02*
X72282268Y-111204819D01*
X72282268Y-111204819D02*
X72377506Y-111252438D01*
X72377506Y-111252438D02*
X72425125Y-111300057D01*
X72425125Y-111300057D02*
X72472744Y-111395295D01*
X72472744Y-111395295D02*
X72520363Y-111585771D01*
X72520363Y-111585771D02*
X72520363Y-111823866D01*
X72520363Y-111823866D02*
X72472744Y-112014342D01*
X72472744Y-112014342D02*
X72425125Y-112109580D01*
X72425125Y-112109580D02*
X72377506Y-112157200D01*
X72377506Y-112157200D02*
X72282268Y-112204819D01*
X72282268Y-112204819D02*
X72187030Y-112204819D01*
X72187030Y-112204819D02*
X72091792Y-112157200D01*
X72091792Y-112157200D02*
X72044173Y-112109580D01*
X72044173Y-112109580D02*
X71996554Y-112014342D01*
X71996554Y-112014342D02*
X71948935Y-111823866D01*
X71948935Y-111823866D02*
X71948935Y-111585771D01*
X71948935Y-111585771D02*
X71996554Y-111395295D01*
X71996554Y-111395295D02*
X72044173Y-111300057D01*
X72044173Y-111300057D02*
X72091792Y-111252438D01*
X72091792Y-111252438D02*
X72187030Y-111204819D01*
X72948935Y-111538152D02*
X72948935Y-112538152D01*
X72948935Y-111585771D02*
X73044173Y-111538152D01*
X73044173Y-111538152D02*
X73234649Y-111538152D01*
X73234649Y-111538152D02*
X73329887Y-111585771D01*
X73329887Y-111585771D02*
X73377506Y-111633390D01*
X73377506Y-111633390D02*
X73425125Y-111728628D01*
X73425125Y-111728628D02*
X73425125Y-112014342D01*
X73425125Y-112014342D02*
X73377506Y-112109580D01*
X73377506Y-112109580D02*
X73329887Y-112157200D01*
X73329887Y-112157200D02*
X73234649Y-112204819D01*
X73234649Y-112204819D02*
X73044173Y-112204819D01*
X73044173Y-112204819D02*
X72948935Y-112157200D01*
X73806078Y-112157200D02*
X73901316Y-112204819D01*
X73901316Y-112204819D02*
X74091792Y-112204819D01*
X74091792Y-112204819D02*
X74187030Y-112157200D01*
X74187030Y-112157200D02*
X74234649Y-112061961D01*
X74234649Y-112061961D02*
X74234649Y-112014342D01*
X74234649Y-112014342D02*
X74187030Y-111919104D01*
X74187030Y-111919104D02*
X74091792Y-111871485D01*
X74091792Y-111871485D02*
X73948935Y-111871485D01*
X73948935Y-111871485D02*
X73853697Y-111823866D01*
X73853697Y-111823866D02*
X73806078Y-111728628D01*
X73806078Y-111728628D02*
X73806078Y-111681009D01*
X73806078Y-111681009D02*
X73853697Y-111585771D01*
X73853697Y-111585771D02*
X73948935Y-111538152D01*
X73948935Y-111538152D02*
X74091792Y-111538152D01*
X74091792Y-111538152D02*
X74187030Y-111585771D01*
X74663221Y-112204819D02*
X74663221Y-111538152D01*
X74663221Y-111204819D02*
X74615602Y-111252438D01*
X74615602Y-111252438D02*
X74663221Y-111300057D01*
X74663221Y-111300057D02*
X74710840Y-111252438D01*
X74710840Y-111252438D02*
X74663221Y-111204819D01*
X74663221Y-111204819D02*
X74663221Y-111300057D01*
X81859580Y-111591792D02*
X81907200Y-111639411D01*
X81907200Y-111639411D02*
X81954819Y-111782268D01*
X81954819Y-111782268D02*
X81954819Y-111877506D01*
X81954819Y-111877506D02*
X81907200Y-112020363D01*
X81907200Y-112020363D02*
X81811961Y-112115601D01*
X81811961Y-112115601D02*
X81716723Y-112163220D01*
X81716723Y-112163220D02*
X81526247Y-112210839D01*
X81526247Y-112210839D02*
X81383390Y-112210839D01*
X81383390Y-112210839D02*
X81192914Y-112163220D01*
X81192914Y-112163220D02*
X81097676Y-112115601D01*
X81097676Y-112115601D02*
X81002438Y-112020363D01*
X81002438Y-112020363D02*
X80954819Y-111877506D01*
X80954819Y-111877506D02*
X80954819Y-111782268D01*
X80954819Y-111782268D02*
X81002438Y-111639411D01*
X81002438Y-111639411D02*
X81050057Y-111591792D01*
X81907200Y-111210839D02*
X81954819Y-111067982D01*
X81954819Y-111067982D02*
X81954819Y-110829887D01*
X81954819Y-110829887D02*
X81907200Y-110734649D01*
X81907200Y-110734649D02*
X81859580Y-110687030D01*
X81859580Y-110687030D02*
X81764342Y-110639411D01*
X81764342Y-110639411D02*
X81669104Y-110639411D01*
X81669104Y-110639411D02*
X81573866Y-110687030D01*
X81573866Y-110687030D02*
X81526247Y-110734649D01*
X81526247Y-110734649D02*
X81478628Y-110829887D01*
X81478628Y-110829887D02*
X81431009Y-111020363D01*
X81431009Y-111020363D02*
X81383390Y-111115601D01*
X81383390Y-111115601D02*
X81335771Y-111163220D01*
X81335771Y-111163220D02*
X81240533Y-111210839D01*
X81240533Y-111210839D02*
X81145295Y-111210839D01*
X81145295Y-111210839D02*
X81050057Y-111163220D01*
X81050057Y-111163220D02*
X81002438Y-111115601D01*
X81002438Y-111115601D02*
X80954819Y-111020363D01*
X80954819Y-111020363D02*
X80954819Y-110782268D01*
X80954819Y-110782268D02*
X81002438Y-110639411D01*
D11*
X96573809Y-108907752D02*
X96497619Y-108869657D01*
X96497619Y-108869657D02*
X96459524Y-108831561D01*
X96459524Y-108831561D02*
X96421428Y-108755371D01*
X96421428Y-108755371D02*
X96421428Y-108717276D01*
X96421428Y-108717276D02*
X96459524Y-108641085D01*
X96459524Y-108641085D02*
X96497619Y-108602990D01*
X96497619Y-108602990D02*
X96573809Y-108564895D01*
X96573809Y-108564895D02*
X96726190Y-108564895D01*
X96726190Y-108564895D02*
X96802381Y-108602990D01*
X96802381Y-108602990D02*
X96840476Y-108641085D01*
X96840476Y-108641085D02*
X96878571Y-108717276D01*
X96878571Y-108717276D02*
X96878571Y-108755371D01*
X96878571Y-108755371D02*
X96840476Y-108831561D01*
X96840476Y-108831561D02*
X96802381Y-108869657D01*
X96802381Y-108869657D02*
X96726190Y-108907752D01*
X96726190Y-108907752D02*
X96573809Y-108907752D01*
X96573809Y-108907752D02*
X96497619Y-108945847D01*
X96497619Y-108945847D02*
X96459524Y-108983942D01*
X96459524Y-108983942D02*
X96421428Y-109060133D01*
X96421428Y-109060133D02*
X96421428Y-109212514D01*
X96421428Y-109212514D02*
X96459524Y-109288704D01*
X96459524Y-109288704D02*
X96497619Y-109326800D01*
X96497619Y-109326800D02*
X96573809Y-109364895D01*
X96573809Y-109364895D02*
X96726190Y-109364895D01*
X96726190Y-109364895D02*
X96802381Y-109326800D01*
X96802381Y-109326800D02*
X96840476Y-109288704D01*
X96840476Y-109288704D02*
X96878571Y-109212514D01*
X96878571Y-109212514D02*
X96878571Y-109060133D01*
X96878571Y-109060133D02*
X96840476Y-108983942D01*
X96840476Y-108983942D02*
X96802381Y-108945847D01*
X96802381Y-108945847D02*
X96726190Y-108907752D01*
D12*
X63639411Y-110907200D02*
X63782268Y-110954819D01*
X63782268Y-110954819D02*
X64020363Y-110954819D01*
X64020363Y-110954819D02*
X64115601Y-110907200D01*
X64115601Y-110907200D02*
X64163220Y-110859580D01*
X64163220Y-110859580D02*
X64210839Y-110764342D01*
X64210839Y-110764342D02*
X64210839Y-110669104D01*
X64210839Y-110669104D02*
X64163220Y-110573866D01*
X64163220Y-110573866D02*
X64115601Y-110526247D01*
X64115601Y-110526247D02*
X64020363Y-110478628D01*
X64020363Y-110478628D02*
X63829887Y-110431009D01*
X63829887Y-110431009D02*
X63734649Y-110383390D01*
X63734649Y-110383390D02*
X63687030Y-110335771D01*
X63687030Y-110335771D02*
X63639411Y-110240533D01*
X63639411Y-110240533D02*
X63639411Y-110145295D01*
X63639411Y-110145295D02*
X63687030Y-110050057D01*
X63687030Y-110050057D02*
X63734649Y-110002438D01*
X63734649Y-110002438D02*
X63829887Y-109954819D01*
X63829887Y-109954819D02*
X64067982Y-109954819D01*
X64067982Y-109954819D02*
X64210839Y-110002438D01*
X64639411Y-110954819D02*
X64639411Y-109954819D01*
X64639411Y-109954819D02*
X64877506Y-109954819D01*
X64877506Y-109954819D02*
X65020363Y-110002438D01*
X65020363Y-110002438D02*
X65115601Y-110097676D01*
X65115601Y-110097676D02*
X65163220Y-110192914D01*
X65163220Y-110192914D02*
X65210839Y-110383390D01*
X65210839Y-110383390D02*
X65210839Y-110526247D01*
X65210839Y-110526247D02*
X65163220Y-110716723D01*
X65163220Y-110716723D02*
X65115601Y-110811961D01*
X65115601Y-110811961D02*
X65020363Y-110907200D01*
X65020363Y-110907200D02*
X64877506Y-110954819D01*
X64877506Y-110954819D02*
X64639411Y-110954819D01*
X65591792Y-110050057D02*
X65639411Y-110002438D01*
X65639411Y-110002438D02*
X65734649Y-109954819D01*
X65734649Y-109954819D02*
X65972744Y-109954819D01*
X65972744Y-109954819D02*
X66067982Y-110002438D01*
X66067982Y-110002438D02*
X66115601Y-110050057D01*
X66115601Y-110050057D02*
X66163220Y-110145295D01*
X66163220Y-110145295D02*
X66163220Y-110240533D01*
X66163220Y-110240533D02*
X66115601Y-110383390D01*
X66115601Y-110383390D02*
X65544173Y-110954819D01*
X65544173Y-110954819D02*
X66163220Y-110954819D01*
X66544173Y-110907200D02*
X66687030Y-110954819D01*
X66687030Y-110954819D02*
X66925125Y-110954819D01*
X66925125Y-110954819D02*
X67020363Y-110907200D01*
X67020363Y-110907200D02*
X67067982Y-110859580D01*
X67067982Y-110859580D02*
X67115601Y-110764342D01*
X67115601Y-110764342D02*
X67115601Y-110669104D01*
X67115601Y-110669104D02*
X67067982Y-110573866D01*
X67067982Y-110573866D02*
X67020363Y-110526247D01*
X67020363Y-110526247D02*
X66925125Y-110478628D01*
X66925125Y-110478628D02*
X66734649Y-110431009D01*
X66734649Y-110431009D02*
X66639411Y-110383390D01*
X66639411Y-110383390D02*
X66591792Y-110335771D01*
X66591792Y-110335771D02*
X66544173Y-110240533D01*
X66544173Y-110240533D02*
X66544173Y-110145295D01*
X66544173Y-110145295D02*
X66591792Y-110050057D01*
X66591792Y-110050057D02*
X66639411Y-110002438D01*
X66639411Y-110002438D02*
X66734649Y-109954819D01*
X66734649Y-109954819D02*
X66972744Y-109954819D01*
X66972744Y-109954819D02*
X67115601Y-110002438D01*
X67544173Y-110954819D02*
X67544173Y-109954819D01*
X67544173Y-109954819D02*
X67925125Y-109954819D01*
X67925125Y-109954819D02*
X68020363Y-110002438D01*
X68020363Y-110002438D02*
X68067982Y-110050057D01*
X68067982Y-110050057D02*
X68115601Y-110145295D01*
X68115601Y-110145295D02*
X68115601Y-110288152D01*
X68115601Y-110288152D02*
X68067982Y-110383390D01*
X68067982Y-110383390D02*
X68020363Y-110431009D01*
X68020363Y-110431009D02*
X67925125Y-110478628D01*
X67925125Y-110478628D02*
X67544173Y-110478628D01*
X68496554Y-110050057D02*
X68544173Y-110002438D01*
X68544173Y-110002438D02*
X68639411Y-109954819D01*
X68639411Y-109954819D02*
X68877506Y-109954819D01*
X68877506Y-109954819D02*
X68972744Y-110002438D01*
X68972744Y-110002438D02*
X69020363Y-110050057D01*
X69020363Y-110050057D02*
X69067982Y-110145295D01*
X69067982Y-110145295D02*
X69067982Y-110240533D01*
X69067982Y-110240533D02*
X69020363Y-110383390D01*
X69020363Y-110383390D02*
X68448935Y-110954819D01*
X68448935Y-110954819D02*
X69067982Y-110954819D01*
X70210840Y-110050057D02*
X70258459Y-110002438D01*
X70258459Y-110002438D02*
X70353697Y-109954819D01*
X70353697Y-109954819D02*
X70591792Y-109954819D01*
X70591792Y-109954819D02*
X70687030Y-110002438D01*
X70687030Y-110002438D02*
X70734649Y-110050057D01*
X70734649Y-110050057D02*
X70782268Y-110145295D01*
X70782268Y-110145295D02*
X70782268Y-110240533D01*
X70782268Y-110240533D02*
X70734649Y-110383390D01*
X70734649Y-110383390D02*
X70163221Y-110954819D01*
X70163221Y-110954819D02*
X70782268Y-110954819D01*
X71210840Y-110859580D02*
X71258459Y-110907200D01*
X71258459Y-110907200D02*
X71210840Y-110954819D01*
X71210840Y-110954819D02*
X71163221Y-110907200D01*
X71163221Y-110907200D02*
X71210840Y-110859580D01*
X71210840Y-110859580D02*
X71210840Y-110954819D01*
X71877506Y-109954819D02*
X71972744Y-109954819D01*
X71972744Y-109954819D02*
X72067982Y-110002438D01*
X72067982Y-110002438D02*
X72115601Y-110050057D01*
X72115601Y-110050057D02*
X72163220Y-110145295D01*
X72163220Y-110145295D02*
X72210839Y-110335771D01*
X72210839Y-110335771D02*
X72210839Y-110573866D01*
X72210839Y-110573866D02*
X72163220Y-110764342D01*
X72163220Y-110764342D02*
X72115601Y-110859580D01*
X72115601Y-110859580D02*
X72067982Y-110907200D01*
X72067982Y-110907200D02*
X71972744Y-110954819D01*
X71972744Y-110954819D02*
X71877506Y-110954819D01*
X71877506Y-110954819D02*
X71782268Y-110907200D01*
X71782268Y-110907200D02*
X71734649Y-110859580D01*
X71734649Y-110859580D02*
X71687030Y-110764342D01*
X71687030Y-110764342D02*
X71639411Y-110573866D01*
X71639411Y-110573866D02*
X71639411Y-110335771D01*
X71639411Y-110335771D02*
X71687030Y-110145295D01*
X71687030Y-110145295D02*
X71734649Y-110050057D01*
X71734649Y-110050057D02*
X71782268Y-110002438D01*
X71782268Y-110002438D02*
X71877506Y-109954819D01*
X64261904Y-112978628D02*
X64214285Y-112931009D01*
X64214285Y-112931009D02*
X64119047Y-112883390D01*
X64119047Y-112883390D02*
X64023809Y-112883390D01*
X64023809Y-112883390D02*
X63928571Y-112931009D01*
X63928571Y-112931009D02*
X63880952Y-112978628D01*
X63880952Y-112978628D02*
X63833333Y-113073866D01*
X63833333Y-113073866D02*
X63833333Y-113169104D01*
X63833333Y-113169104D02*
X63880952Y-113264342D01*
X63880952Y-113264342D02*
X63928571Y-113311961D01*
X63928571Y-113311961D02*
X64023809Y-113359580D01*
X64023809Y-113359580D02*
X64119047Y-113359580D01*
X64119047Y-113359580D02*
X64214285Y-113311961D01*
X64214285Y-113311961D02*
X64261904Y-113264342D01*
X64261904Y-112883390D02*
X64261904Y-113264342D01*
X64261904Y-113264342D02*
X64309523Y-113311961D01*
X64309523Y-113311961D02*
X64357142Y-113311961D01*
X64357142Y-113311961D02*
X64452381Y-113264342D01*
X64452381Y-113264342D02*
X64500000Y-113169104D01*
X64500000Y-113169104D02*
X64500000Y-112931009D01*
X64500000Y-112931009D02*
X64404762Y-112788152D01*
X64404762Y-112788152D02*
X64261904Y-112692914D01*
X64261904Y-112692914D02*
X64071428Y-112645295D01*
X64071428Y-112645295D02*
X63880952Y-112692914D01*
X63880952Y-112692914D02*
X63738095Y-112788152D01*
X63738095Y-112788152D02*
X63642857Y-112931009D01*
X63642857Y-112931009D02*
X63595238Y-113121485D01*
X63595238Y-113121485D02*
X63642857Y-113311961D01*
X63642857Y-113311961D02*
X63738095Y-113454819D01*
X63738095Y-113454819D02*
X63880952Y-113550057D01*
X63880952Y-113550057D02*
X64071428Y-113597676D01*
X64071428Y-113597676D02*
X64261904Y-113550057D01*
X64261904Y-113550057D02*
X64404762Y-113454819D01*
X64928571Y-112931009D02*
X65261904Y-112931009D01*
X65404761Y-113454819D02*
X64928571Y-113454819D01*
X64928571Y-113454819D02*
X64928571Y-112454819D01*
X64928571Y-112454819D02*
X65404761Y-112454819D01*
X65738095Y-113454819D02*
X66261904Y-112788152D01*
X65738095Y-112788152D02*
X66261904Y-113454819D01*
X66500000Y-112788152D02*
X66880952Y-112788152D01*
X66642857Y-112454819D02*
X66642857Y-113311961D01*
X66642857Y-113311961D02*
X66690476Y-113407200D01*
X66690476Y-113407200D02*
X66785714Y-113454819D01*
X66785714Y-113454819D02*
X66880952Y-113454819D01*
X67214286Y-113454819D02*
X67214286Y-112788152D01*
X67214286Y-112978628D02*
X67261905Y-112883390D01*
X67261905Y-112883390D02*
X67309524Y-112835771D01*
X67309524Y-112835771D02*
X67404762Y-112788152D01*
X67404762Y-112788152D02*
X67500000Y-112788152D01*
X68214286Y-113407200D02*
X68119048Y-113454819D01*
X68119048Y-113454819D02*
X67928572Y-113454819D01*
X67928572Y-113454819D02*
X67833334Y-113407200D01*
X67833334Y-113407200D02*
X67785715Y-113311961D01*
X67785715Y-113311961D02*
X67785715Y-112931009D01*
X67785715Y-112931009D02*
X67833334Y-112835771D01*
X67833334Y-112835771D02*
X67928572Y-112788152D01*
X67928572Y-112788152D02*
X68119048Y-112788152D01*
X68119048Y-112788152D02*
X68214286Y-112835771D01*
X68214286Y-112835771D02*
X68261905Y-112931009D01*
X68261905Y-112931009D02*
X68261905Y-113026247D01*
X68261905Y-113026247D02*
X67785715Y-113121485D01*
X68690477Y-113454819D02*
X68690477Y-112788152D01*
X68690477Y-112883390D02*
X68738096Y-112835771D01*
X68738096Y-112835771D02*
X68833334Y-112788152D01*
X68833334Y-112788152D02*
X68976191Y-112788152D01*
X68976191Y-112788152D02*
X69071429Y-112835771D01*
X69071429Y-112835771D02*
X69119048Y-112931009D01*
X69119048Y-112931009D02*
X69119048Y-113454819D01*
X69119048Y-112931009D02*
X69166667Y-112835771D01*
X69166667Y-112835771D02*
X69261905Y-112788152D01*
X69261905Y-112788152D02*
X69404762Y-112788152D01*
X69404762Y-112788152D02*
X69500001Y-112835771D01*
X69500001Y-112835771D02*
X69547620Y-112931009D01*
X69547620Y-112931009D02*
X69547620Y-113454819D01*
X69976191Y-113407200D02*
X70071429Y-113454819D01*
X70071429Y-113454819D02*
X70261905Y-113454819D01*
X70261905Y-113454819D02*
X70357143Y-113407200D01*
X70357143Y-113407200D02*
X70404762Y-113311961D01*
X70404762Y-113311961D02*
X70404762Y-113264342D01*
X70404762Y-113264342D02*
X70357143Y-113169104D01*
X70357143Y-113169104D02*
X70261905Y-113121485D01*
X70261905Y-113121485D02*
X70119048Y-113121485D01*
X70119048Y-113121485D02*
X70023810Y-113073866D01*
X70023810Y-113073866D02*
X69976191Y-112978628D01*
X69976191Y-112978628D02*
X69976191Y-112931009D01*
X69976191Y-112931009D02*
X70023810Y-112835771D01*
X70023810Y-112835771D02*
X70119048Y-112788152D01*
X70119048Y-112788152D02*
X70261905Y-112788152D01*
X70261905Y-112788152D02*
X70357143Y-112835771D01*
X74261905Y-121104819D02*
X74261905Y-120104819D01*
X74261905Y-120104819D02*
X74642857Y-120104819D01*
X74642857Y-120104819D02*
X74738095Y-120152438D01*
X74738095Y-120152438D02*
X74785714Y-120200057D01*
X74785714Y-120200057D02*
X74833333Y-120295295D01*
X74833333Y-120295295D02*
X74833333Y-120438152D01*
X74833333Y-120438152D02*
X74785714Y-120533390D01*
X74785714Y-120533390D02*
X74738095Y-120581009D01*
X74738095Y-120581009D02*
X74642857Y-120628628D01*
X74642857Y-120628628D02*
X74261905Y-120628628D01*
X75785714Y-121104819D02*
X75214286Y-121104819D01*
X75500000Y-121104819D02*
X75500000Y-120104819D01*
X75500000Y-120104819D02*
X75404762Y-120247676D01*
X75404762Y-120247676D02*
X75309524Y-120342914D01*
X75309524Y-120342914D02*
X75214286Y-120390533D01*
X73333333Y-107709580D02*
X73285714Y-107757200D01*
X73285714Y-107757200D02*
X73142857Y-107804819D01*
X73142857Y-107804819D02*
X73047619Y-107804819D01*
X73047619Y-107804819D02*
X72904762Y-107757200D01*
X72904762Y-107757200D02*
X72809524Y-107661961D01*
X72809524Y-107661961D02*
X72761905Y-107566723D01*
X72761905Y-107566723D02*
X72714286Y-107376247D01*
X72714286Y-107376247D02*
X72714286Y-107233390D01*
X72714286Y-107233390D02*
X72761905Y-107042914D01*
X72761905Y-107042914D02*
X72809524Y-106947676D01*
X72809524Y-106947676D02*
X72904762Y-106852438D01*
X72904762Y-106852438D02*
X73047619Y-106804819D01*
X73047619Y-106804819D02*
X73142857Y-106804819D01*
X73142857Y-106804819D02*
X73285714Y-106852438D01*
X73285714Y-106852438D02*
X73333333Y-106900057D01*
X74285714Y-107804819D02*
X73714286Y-107804819D01*
X74000000Y-107804819D02*
X74000000Y-106804819D01*
X74000000Y-106804819D02*
X73904762Y-106947676D01*
X73904762Y-106947676D02*
X73809524Y-107042914D01*
X73809524Y-107042914D02*
X73714286Y-107090533D01*
X86666666Y-118204819D02*
X86666666Y-118919104D01*
X86666666Y-118919104D02*
X86619047Y-119061961D01*
X86619047Y-119061961D02*
X86523809Y-119157200D01*
X86523809Y-119157200D02*
X86380952Y-119204819D01*
X86380952Y-119204819D02*
X86285714Y-119204819D01*
X87666666Y-119204819D02*
X87095238Y-119204819D01*
X87380952Y-119204819D02*
X87380952Y-118204819D01*
X87380952Y-118204819D02*
X87285714Y-118347676D01*
X87285714Y-118347676D02*
X87190476Y-118442914D01*
X87190476Y-118442914D02*
X87095238Y-118490533D01*
X83454819Y-109261904D02*
X84264342Y-109261904D01*
X84264342Y-109261904D02*
X84359580Y-109214285D01*
X84359580Y-109214285D02*
X84407200Y-109166666D01*
X84407200Y-109166666D02*
X84454819Y-109071428D01*
X84454819Y-109071428D02*
X84454819Y-108880952D01*
X84454819Y-108880952D02*
X84407200Y-108785714D01*
X84407200Y-108785714D02*
X84359580Y-108738095D01*
X84359580Y-108738095D02*
X84264342Y-108690476D01*
X84264342Y-108690476D02*
X83454819Y-108690476D01*
X84454819Y-107690476D02*
X84454819Y-108261904D01*
X84454819Y-107976190D02*
X83454819Y-107976190D01*
X83454819Y-107976190D02*
X83597676Y-108071428D01*
X83597676Y-108071428D02*
X83692914Y-108166666D01*
X83692914Y-108166666D02*
X83740533Y-108261904D01*
D13*
X76250000Y-108200000D02*
X77250000Y-108200000D01*
X77250000Y-106500000D02*
X76250000Y-106500000D01*
D14*
X86721500Y-109825700D02*
X86721500Y-112205600D01*
X86721500Y-115061140D02*
X86721500Y-115862660D01*
X87867263Y-117674300D02*
X88661760Y-117674300D01*
X88363259Y-109825700D02*
X86721500Y-109825700D01*
X92248240Y-117674300D02*
X92851760Y-117674300D01*
X92373000Y-117674300D02*
X92627000Y-117674300D01*
X96438240Y-117674300D02*
X98278500Y-117674300D01*
X98278500Y-109825700D02*
X97236739Y-109825700D01*
X98278500Y-111510759D02*
X98278500Y-109825700D01*
X98278500Y-115292659D02*
X98278500Y-114563839D01*
X98278500Y-117674300D02*
X98278500Y-117151939D01*
D13*
X79940000Y-108500000D02*
X79940000Y-107725000D01*
X79940000Y-108500000D02*
X79940000Y-109275000D01*
X83060000Y-108500000D02*
X83060000Y-107725000D01*
X83060000Y-108500000D02*
X83060000Y-109275000D01*
X79990000Y-109862500D02*
X79660000Y-110102500D01*
X79660000Y-109622500D01*
X79990000Y-109862500D01*
G36*
X79990000Y-109862500D02*
G01*
X79660000Y-110102500D01*
X79660000Y-109622500D01*
X79990000Y-109862500D01*
G37*
M02*
