G04 #@! TF.GenerationSoftware,KiCad,Pcbnew,8.0.2*
G04 #@! TF.CreationDate,2024-05-30T00:05:45-04:00*
G04 #@! TF.ProjectId,gc_sp2,67635f73-7032-42e6-9b69-6361645f7063,rev?*
G04 #@! TF.SameCoordinates,Original*
G04 #@! TF.FileFunction,Legend,Bot*
G04 #@! TF.FilePolarity,Positive*
%FSLAX46Y46*%
G04 Gerber Fmt 4.6, Leading zero omitted, Abs format (unit mm)*
G04 Created by KiCad (PCBNEW 8.0.2) date 2024-05-30 00:05:45*
%MOMM*%
%LPD*%
G01*
G04 APERTURE LIST*
%ADD10C,0.150000*%
%ADD11C,0.300000*%
G04 APERTURE END LIST*
D10*
X76102438Y-110115601D02*
X76054819Y-110020363D01*
X76054819Y-110020363D02*
X76054819Y-109877506D01*
X76054819Y-109877506D02*
X76102438Y-109734649D01*
X76102438Y-109734649D02*
X76197676Y-109639411D01*
X76197676Y-109639411D02*
X76292914Y-109591792D01*
X76292914Y-109591792D02*
X76483390Y-109544173D01*
X76483390Y-109544173D02*
X76626247Y-109544173D01*
X76626247Y-109544173D02*
X76816723Y-109591792D01*
X76816723Y-109591792D02*
X76911961Y-109639411D01*
X76911961Y-109639411D02*
X77007200Y-109734649D01*
X77007200Y-109734649D02*
X77054819Y-109877506D01*
X77054819Y-109877506D02*
X77054819Y-109972744D01*
X77054819Y-109972744D02*
X77007200Y-110115601D01*
X77007200Y-110115601D02*
X76959580Y-110163220D01*
X76959580Y-110163220D02*
X76626247Y-110163220D01*
X76626247Y-110163220D02*
X76626247Y-109972744D01*
X77054819Y-110591792D02*
X76054819Y-110591792D01*
X76054819Y-110591792D02*
X77054819Y-111163220D01*
X77054819Y-111163220D02*
X76054819Y-111163220D01*
X77054819Y-111639411D02*
X76054819Y-111639411D01*
X76054819Y-111639411D02*
X76054819Y-111877506D01*
X76054819Y-111877506D02*
X76102438Y-112020363D01*
X76102438Y-112020363D02*
X76197676Y-112115601D01*
X76197676Y-112115601D02*
X76292914Y-112163220D01*
X76292914Y-112163220D02*
X76483390Y-112210839D01*
X76483390Y-112210839D02*
X76626247Y-112210839D01*
X76626247Y-112210839D02*
X76816723Y-112163220D01*
X76816723Y-112163220D02*
X76911961Y-112115601D01*
X76911961Y-112115601D02*
X77007200Y-112020363D01*
X77007200Y-112020363D02*
X77054819Y-111877506D01*
X77054819Y-111877506D02*
X77054819Y-111639411D01*
X78959580Y-110401315D02*
X79007200Y-110353696D01*
X79007200Y-110353696D02*
X79054819Y-110210839D01*
X79054819Y-110210839D02*
X79054819Y-110115601D01*
X79054819Y-110115601D02*
X79007200Y-109972744D01*
X79007200Y-109972744D02*
X78911961Y-109877506D01*
X78911961Y-109877506D02*
X78816723Y-109829887D01*
X78816723Y-109829887D02*
X78626247Y-109782268D01*
X78626247Y-109782268D02*
X78483390Y-109782268D01*
X78483390Y-109782268D02*
X78292914Y-109829887D01*
X78292914Y-109829887D02*
X78197676Y-109877506D01*
X78197676Y-109877506D02*
X78102438Y-109972744D01*
X78102438Y-109972744D02*
X78054819Y-110115601D01*
X78054819Y-110115601D02*
X78054819Y-110210839D01*
X78054819Y-110210839D02*
X78102438Y-110353696D01*
X78102438Y-110353696D02*
X78150057Y-110401315D01*
X79054819Y-111306077D02*
X79054819Y-110829887D01*
X79054819Y-110829887D02*
X78054819Y-110829887D01*
X79054819Y-111639411D02*
X78054819Y-111639411D01*
X79054819Y-112210839D02*
X78483390Y-111782268D01*
X78054819Y-112210839D02*
X78626247Y-111639411D01*
X80954819Y-110591792D02*
X79954819Y-110591792D01*
X79954819Y-110591792D02*
X79954819Y-110829887D01*
X79954819Y-110829887D02*
X80002438Y-110972744D01*
X80002438Y-110972744D02*
X80097676Y-111067982D01*
X80097676Y-111067982D02*
X80192914Y-111115601D01*
X80192914Y-111115601D02*
X80383390Y-111163220D01*
X80383390Y-111163220D02*
X80526247Y-111163220D01*
X80526247Y-111163220D02*
X80716723Y-111115601D01*
X80716723Y-111115601D02*
X80811961Y-111067982D01*
X80811961Y-111067982D02*
X80907200Y-110972744D01*
X80907200Y-110972744D02*
X80954819Y-110829887D01*
X80954819Y-110829887D02*
X80954819Y-110591792D01*
X79954819Y-111782268D02*
X79954819Y-111972744D01*
X79954819Y-111972744D02*
X80002438Y-112067982D01*
X80002438Y-112067982D02*
X80097676Y-112163220D01*
X80097676Y-112163220D02*
X80288152Y-112210839D01*
X80288152Y-112210839D02*
X80621485Y-112210839D01*
X80621485Y-112210839D02*
X80811961Y-112163220D01*
X80811961Y-112163220D02*
X80907200Y-112067982D01*
X80907200Y-112067982D02*
X80954819Y-111972744D01*
X80954819Y-111972744D02*
X80954819Y-111782268D01*
X80954819Y-111782268D02*
X80907200Y-111687030D01*
X80907200Y-111687030D02*
X80811961Y-111591792D01*
X80811961Y-111591792D02*
X80621485Y-111544173D01*
X80621485Y-111544173D02*
X80288152Y-111544173D01*
X80288152Y-111544173D02*
X80097676Y-111591792D01*
X80097676Y-111591792D02*
X80002438Y-111687030D01*
X80002438Y-111687030D02*
X79954819Y-111782268D01*
D11*
X82142856Y-101970870D02*
X81285714Y-101970870D01*
X81714285Y-103470870D02*
X81714285Y-101970870D01*
X80785714Y-103470870D02*
X80785714Y-101970870D01*
X80785714Y-102685156D02*
X79928571Y-102685156D01*
X79928571Y-103470870D02*
X79928571Y-101970870D01*
X79214285Y-103470870D02*
X79214285Y-101970870D01*
X78571427Y-103399442D02*
X78357142Y-103470870D01*
X78357142Y-103470870D02*
X77999999Y-103470870D01*
X77999999Y-103470870D02*
X77857142Y-103399442D01*
X77857142Y-103399442D02*
X77785713Y-103328013D01*
X77785713Y-103328013D02*
X77714284Y-103185156D01*
X77714284Y-103185156D02*
X77714284Y-103042299D01*
X77714284Y-103042299D02*
X77785713Y-102899442D01*
X77785713Y-102899442D02*
X77857142Y-102828013D01*
X77857142Y-102828013D02*
X77999999Y-102756584D01*
X77999999Y-102756584D02*
X78285713Y-102685156D01*
X78285713Y-102685156D02*
X78428570Y-102613727D01*
X78428570Y-102613727D02*
X78499999Y-102542299D01*
X78499999Y-102542299D02*
X78571427Y-102399442D01*
X78571427Y-102399442D02*
X78571427Y-102256584D01*
X78571427Y-102256584D02*
X78499999Y-102113727D01*
X78499999Y-102113727D02*
X78428570Y-102042299D01*
X78428570Y-102042299D02*
X78285713Y-101970870D01*
X78285713Y-101970870D02*
X77928570Y-101970870D01*
X77928570Y-101970870D02*
X77714284Y-102042299D01*
X75999999Y-103399442D02*
X75785714Y-103470870D01*
X75785714Y-103470870D02*
X75428571Y-103470870D01*
X75428571Y-103470870D02*
X75285714Y-103399442D01*
X75285714Y-103399442D02*
X75214285Y-103328013D01*
X75214285Y-103328013D02*
X75142856Y-103185156D01*
X75142856Y-103185156D02*
X75142856Y-103042299D01*
X75142856Y-103042299D02*
X75214285Y-102899442D01*
X75214285Y-102899442D02*
X75285714Y-102828013D01*
X75285714Y-102828013D02*
X75428571Y-102756584D01*
X75428571Y-102756584D02*
X75714285Y-102685156D01*
X75714285Y-102685156D02*
X75857142Y-102613727D01*
X75857142Y-102613727D02*
X75928571Y-102542299D01*
X75928571Y-102542299D02*
X75999999Y-102399442D01*
X75999999Y-102399442D02*
X75999999Y-102256584D01*
X75999999Y-102256584D02*
X75928571Y-102113727D01*
X75928571Y-102113727D02*
X75857142Y-102042299D01*
X75857142Y-102042299D02*
X75714285Y-101970870D01*
X75714285Y-101970870D02*
X75357142Y-101970870D01*
X75357142Y-101970870D02*
X75142856Y-102042299D01*
X74500000Y-103470870D02*
X74500000Y-101970870D01*
X73785714Y-103470870D02*
X73785714Y-101970870D01*
X73785714Y-101970870D02*
X73428571Y-101970870D01*
X73428571Y-101970870D02*
X73214285Y-102042299D01*
X73214285Y-102042299D02*
X73071428Y-102185156D01*
X73071428Y-102185156D02*
X72999999Y-102328013D01*
X72999999Y-102328013D02*
X72928571Y-102613727D01*
X72928571Y-102613727D02*
X72928571Y-102828013D01*
X72928571Y-102828013D02*
X72999999Y-103113727D01*
X72999999Y-103113727D02*
X73071428Y-103256584D01*
X73071428Y-103256584D02*
X73214285Y-103399442D01*
X73214285Y-103399442D02*
X73428571Y-103470870D01*
X73428571Y-103470870D02*
X73785714Y-103470870D01*
X72285714Y-102685156D02*
X71785714Y-102685156D01*
X71571428Y-103470870D02*
X72285714Y-103470870D01*
X72285714Y-103470870D02*
X72285714Y-101970870D01*
X72285714Y-101970870D02*
X71571428Y-101970870D01*
X69285714Y-102685156D02*
X69785714Y-102685156D01*
X69785714Y-103470870D02*
X69785714Y-101970870D01*
X69785714Y-101970870D02*
X69071428Y-101970870D01*
X68571428Y-103042299D02*
X67857143Y-103042299D01*
X68714285Y-103470870D02*
X68214285Y-101970870D01*
X68214285Y-101970870D02*
X67714285Y-103470870D01*
X66357143Y-103328013D02*
X66428571Y-103399442D01*
X66428571Y-103399442D02*
X66642857Y-103470870D01*
X66642857Y-103470870D02*
X66785714Y-103470870D01*
X66785714Y-103470870D02*
X67000000Y-103399442D01*
X67000000Y-103399442D02*
X67142857Y-103256584D01*
X67142857Y-103256584D02*
X67214286Y-103113727D01*
X67214286Y-103113727D02*
X67285714Y-102828013D01*
X67285714Y-102828013D02*
X67285714Y-102613727D01*
X67285714Y-102613727D02*
X67214286Y-102328013D01*
X67214286Y-102328013D02*
X67142857Y-102185156D01*
X67142857Y-102185156D02*
X67000000Y-102042299D01*
X67000000Y-102042299D02*
X66785714Y-101970870D01*
X66785714Y-101970870D02*
X66642857Y-101970870D01*
X66642857Y-101970870D02*
X66428571Y-102042299D01*
X66428571Y-102042299D02*
X66357143Y-102113727D01*
X65714286Y-102685156D02*
X65214286Y-102685156D01*
X65000000Y-103470870D02*
X65714286Y-103470870D01*
X65714286Y-103470870D02*
X65714286Y-101970870D01*
X65714286Y-101970870D02*
X65000000Y-101970870D01*
X77499999Y-104385786D02*
X77214285Y-104385786D01*
X77214285Y-104385786D02*
X77071428Y-104457215D01*
X77071428Y-104457215D02*
X76928571Y-104600072D01*
X76928571Y-104600072D02*
X76857142Y-104885786D01*
X76857142Y-104885786D02*
X76857142Y-105385786D01*
X76857142Y-105385786D02*
X76928571Y-105671500D01*
X76928571Y-105671500D02*
X77071428Y-105814358D01*
X77071428Y-105814358D02*
X77214285Y-105885786D01*
X77214285Y-105885786D02*
X77499999Y-105885786D01*
X77499999Y-105885786D02*
X77642857Y-105814358D01*
X77642857Y-105814358D02*
X77785714Y-105671500D01*
X77785714Y-105671500D02*
X77857142Y-105385786D01*
X77857142Y-105385786D02*
X77857142Y-104885786D01*
X77857142Y-104885786D02*
X77785714Y-104600072D01*
X77785714Y-104600072D02*
X77642857Y-104457215D01*
X77642857Y-104457215D02*
X77499999Y-104385786D01*
X76214285Y-104385786D02*
X76214285Y-105600072D01*
X76214285Y-105600072D02*
X76142856Y-105742929D01*
X76142856Y-105742929D02*
X76071428Y-105814358D01*
X76071428Y-105814358D02*
X75928570Y-105885786D01*
X75928570Y-105885786D02*
X75642856Y-105885786D01*
X75642856Y-105885786D02*
X75499999Y-105814358D01*
X75499999Y-105814358D02*
X75428570Y-105742929D01*
X75428570Y-105742929D02*
X75357142Y-105600072D01*
X75357142Y-105600072D02*
X75357142Y-104385786D01*
X74857141Y-104385786D02*
X73999999Y-104385786D01*
X74428570Y-105885786D02*
X74428570Y-104385786D01*
X73571427Y-105814358D02*
X73357142Y-105885786D01*
X73357142Y-105885786D02*
X72999999Y-105885786D01*
X72999999Y-105885786D02*
X72857142Y-105814358D01*
X72857142Y-105814358D02*
X72785713Y-105742929D01*
X72785713Y-105742929D02*
X72714284Y-105600072D01*
X72714284Y-105600072D02*
X72714284Y-105457215D01*
X72714284Y-105457215D02*
X72785713Y-105314358D01*
X72785713Y-105314358D02*
X72857142Y-105242929D01*
X72857142Y-105242929D02*
X72999999Y-105171500D01*
X72999999Y-105171500D02*
X73285713Y-105100072D01*
X73285713Y-105100072D02*
X73428570Y-105028643D01*
X73428570Y-105028643D02*
X73499999Y-104957215D01*
X73499999Y-104957215D02*
X73571427Y-104814358D01*
X73571427Y-104814358D02*
X73571427Y-104671500D01*
X73571427Y-104671500D02*
X73499999Y-104528643D01*
X73499999Y-104528643D02*
X73428570Y-104457215D01*
X73428570Y-104457215D02*
X73285713Y-104385786D01*
X73285713Y-104385786D02*
X72928570Y-104385786D01*
X72928570Y-104385786D02*
X72714284Y-104457215D01*
X72071428Y-105885786D02*
X72071428Y-104385786D01*
X71357142Y-105885786D02*
X71357142Y-104385786D01*
X71357142Y-104385786D02*
X70999999Y-104385786D01*
X70999999Y-104385786D02*
X70785713Y-104457215D01*
X70785713Y-104457215D02*
X70642856Y-104600072D01*
X70642856Y-104600072D02*
X70571427Y-104742929D01*
X70571427Y-104742929D02*
X70499999Y-105028643D01*
X70499999Y-105028643D02*
X70499999Y-105242929D01*
X70499999Y-105242929D02*
X70571427Y-105528643D01*
X70571427Y-105528643D02*
X70642856Y-105671500D01*
X70642856Y-105671500D02*
X70785713Y-105814358D01*
X70785713Y-105814358D02*
X70999999Y-105885786D01*
X70999999Y-105885786D02*
X71357142Y-105885786D01*
X69857142Y-105100072D02*
X69357142Y-105100072D01*
X69142856Y-105885786D02*
X69857142Y-105885786D01*
X69857142Y-105885786D02*
X69857142Y-104385786D01*
X69857142Y-104385786D02*
X69142856Y-104385786D01*
D10*
X82102438Y-110115601D02*
X82054819Y-110020363D01*
X82054819Y-110020363D02*
X82054819Y-109877506D01*
X82054819Y-109877506D02*
X82102438Y-109734649D01*
X82102438Y-109734649D02*
X82197676Y-109639411D01*
X82197676Y-109639411D02*
X82292914Y-109591792D01*
X82292914Y-109591792D02*
X82483390Y-109544173D01*
X82483390Y-109544173D02*
X82626247Y-109544173D01*
X82626247Y-109544173D02*
X82816723Y-109591792D01*
X82816723Y-109591792D02*
X82911961Y-109639411D01*
X82911961Y-109639411D02*
X83007200Y-109734649D01*
X83007200Y-109734649D02*
X83054819Y-109877506D01*
X83054819Y-109877506D02*
X83054819Y-109972744D01*
X83054819Y-109972744D02*
X83007200Y-110115601D01*
X83007200Y-110115601D02*
X82959580Y-110163220D01*
X82959580Y-110163220D02*
X82626247Y-110163220D01*
X82626247Y-110163220D02*
X82626247Y-109972744D01*
X83054819Y-110591792D02*
X82054819Y-110591792D01*
X82054819Y-110591792D02*
X83054819Y-111163220D01*
X83054819Y-111163220D02*
X82054819Y-111163220D01*
X83054819Y-111639411D02*
X82054819Y-111639411D01*
X82054819Y-111639411D02*
X82054819Y-111877506D01*
X82054819Y-111877506D02*
X82102438Y-112020363D01*
X82102438Y-112020363D02*
X82197676Y-112115601D01*
X82197676Y-112115601D02*
X82292914Y-112163220D01*
X82292914Y-112163220D02*
X82483390Y-112210839D01*
X82483390Y-112210839D02*
X82626247Y-112210839D01*
X82626247Y-112210839D02*
X82816723Y-112163220D01*
X82816723Y-112163220D02*
X82911961Y-112115601D01*
X82911961Y-112115601D02*
X83007200Y-112020363D01*
X83007200Y-112020363D02*
X83054819Y-111877506D01*
X83054819Y-111877506D02*
X83054819Y-111639411D01*
M02*
